<svg width="13" height="8" viewBox="0 0 13 8" fill="none" xmlns="http://www.w3.org/2000/svg">
<path d="M10.9216 4.80469C11.5255 4.80469 12 5.24469 12 5.80469C12 6.36469 11.5255 6.80469 10.9216 6.80469C10.3176 6.80469 9.84314 6.36469 9.84314 5.80469C9.84314 5.24469 10.3176 4.80469 10.9216 4.80469ZM4.23529 2.80469C4.83922 2.80469 5.31373 3.24469 5.31373 3.80469C5.31373 4.36469 4.83922 4.80469 4.23529 4.80469C3.63137 4.80469 3.15686 4.36469 3.15686 3.80469C3.15686 3.24469 3.63137 2.80469 4.23529 2.80469ZM6.39216 0.804688C6.99608 0.804688 7.47059 1.24469 7.47059 1.80469C7.47059 2.36469 6.99608 2.80469 6.39216 2.80469C5.78824 2.80469 5.31373 2.36469 5.31373 1.80469C5.31373 1.24469 5.78823 0.804688 6.39216 0.804688ZM8.54902 2.80469C9.15294 2.80469 9.62745 3.24469 9.62745 3.80469C9.62745 4.36469 9.15294 4.80469 8.54902 4.80469C7.9451 4.80469 7.47059 4.36469 7.47059 3.80469C7.47059 3.24469 7.9451 2.80469 8.54902 2.80469ZM2.07843 4.80469C2.68235 4.80469 3.15686 5.24469 3.15686 5.80469C3.15686 6.36469 2.68235 6.80469 2.07843 6.80469C1.47451 6.80469 1 6.36469 1 5.80469C1 5.24469 1.47451 4.80469 2.07843 4.80469Z" fill="#F1F1F1"/>
</svg>
