<svg width="30" height="30" viewBox="0 0 30 30" fill="none" xmlns="http://www.w3.org/2000/svg">
<rect width="30" height="30" rx="5" fill="#0F0F0F"/>
<g clip-path="url(#clip0_23989_5535)">
<path d="M9 22.6C9 21.928 9.528 21.4 10.2 21.4C10.872 21.4 11.4 21.928 11.4 22.6C11.4 23.272 10.872 23.8 10.2 23.8C9.528 23.8 9 23.272 9 22.6ZM18.6 22.6C18.6 21.928 19.128 21.4 19.8 21.4C20.472 21.4 21 21.928 21 22.6C21 23.272 20.472 23.8 19.8 23.8C19.128 23.8 18.6 23.272 18.6 22.6ZM9 15.4C9 14.728 9.528 14.2 10.2 14.2C10.872 14.2 11.4 14.728 11.4 15.4C11.4 16.072 10.872 16.6 10.2 16.6C9.528 16.6 9 16.072 9 15.4ZM9 19C9 18.328 9.528 17.8 10.2 17.8C10.872 17.8 11.4 18.328 11.4 19C11.4 19.672 10.872 20.2 10.2 20.2C9.528 20.2 9 19.672 9 19ZM13.8 15.4C13.8 14.728 14.328 14.2 15 14.2C15.672 14.2 16.2 14.728 16.2 15.4C16.2 16.072 15.672 16.6 15 16.6C14.328 16.6 13.8 16.072 13.8 15.4ZM16.2 19C16.2 18.328 16.728 17.8 17.4 17.8C18.072 17.8 18.6 18.328 18.6 19C18.6 18.328 19.128 17.8 19.8 17.8C20.472 17.8 21 18.328 21 19C21 19.672 20.472 20.2 19.8 20.2C19.128 20.2 18.6 19.672 18.6 19C18.6 19.672 18.072 20.2 17.4 20.2C16.728 20.2 16.2 19.672 16.2 19ZM9 8.2C9 7.528 9.528 7 10.2 7C10.872 7 11.4 7.528 11.4 8.2C11.4 8.872 10.872 9.4 10.2 9.4C9.528 9.4 9 8.872 9 8.2ZM11.4 11.8C11.4 12.472 10.872 13 10.2 13C9.528 13 9 12.472 9 11.8C9 11.128 9.528 10.6 10.2 10.6C10.872 10.6 11.4 11.128 11.4 11.8C11.4 11.128 11.928 10.6 12.6 10.6C13.272 10.6 13.8 11.128 13.8 11.8C13.8 12.472 13.272 13 12.6 13C11.928 13 11.4 12.472 11.4 11.8ZM18.6 8.2C18.6 7.528 19.128 7 19.8 7C20.472 7 21 7.528 21 8.2C21 8.872 20.472 9.4 19.8 9.4C19.128 9.4 18.6 8.872 18.6 8.2ZM18.6 11.8C18.6 11.128 19.128 10.6 19.8 10.6C20.472 10.6 21 11.128 21 11.8C21 12.472 20.472 13 19.8 13C19.128 13 18.6 12.472 18.6 11.8ZM18.6 15.4C18.6 14.728 19.128 14.2 19.8 14.2C20.472 14.2 21 14.728 21 15.4C21 16.072 20.472 16.6 19.8 16.6C19.128 16.6 18.6 16.072 18.6 15.4Z" fill="#F1F1F1"/>
<path d="M23.1506 19C23.1506 18.328 23.6786 17.8 24.3506 17.8C25.0226 17.8 25.5506 18.328 25.5506 19C25.5506 19.672 25.0226 20.2 24.3506 20.2C23.6786 20.2 23.1506 19.672 23.1506 19ZM30.3506 22.6C30.3506 23.272 29.8226 23.8 29.1506 23.8C28.4786 23.8 27.9506 23.272 27.9506 22.6C27.9506 23.272 27.4226 23.8 26.7506 23.8C26.0786 23.8 25.5506 23.272 25.5506 22.6C25.5506 23.272 25.0226 23.8 24.3506 23.8C23.6786 23.8 23.1506 23.272 23.1506 22.6C23.1506 21.928 23.6786 21.4 24.3506 21.4C25.0226 21.4 25.5506 21.928 25.5506 22.6C25.5506 21.928 26.0786 21.4 26.7506 21.4C27.4226 21.4 27.9506 21.928 27.9506 22.6C27.9506 21.928 28.4786 21.4 29.1506 21.4C29.8226 21.4 30.3506 21.928 30.3506 22.6C30.3506 21.928 30.8786 21.4 31.5506 21.4C32.2226 21.4 32.7506 21.928 32.7506 22.6C32.7506 21.928 33.2786 21.4 33.9506 21.4C34.6226 21.4 35.1506 21.928 35.1506 22.6C35.1506 23.272 34.6226 23.8 33.9506 23.8C33.2786 23.8 32.7506 23.272 32.7506 22.6C32.7506 23.272 32.2226 23.8 31.5506 23.8C30.8786 23.8 30.3506 23.272 30.3506 22.6ZM23.1506 11.8C23.1506 11.128 23.6786 10.6 24.3506 10.6C25.0226 10.6 25.5506 11.128 25.5506 11.8C25.5506 12.472 25.0226 13 24.3506 13C23.6786 13 23.1506 12.472 23.1506 11.8ZM27.9506 15.4C27.9506 16.072 27.4226 16.6 26.7506 16.6C26.0786 16.6 25.5506 16.072 25.5506 15.4C25.5506 16.072 25.0226 16.6 24.3506 16.6C23.6786 16.6 23.1506 16.072 23.1506 15.4C23.1506 14.728 23.6786 14.2 24.3506 14.2C25.0226 14.2 25.5506 14.728 25.5506 15.4C25.5506 14.728 26.0786 14.2 26.7506 14.2C27.4226 14.2 27.9506 14.728 27.9506 15.4C27.9506 14.728 28.4786 14.2 29.1506 14.2C29.8226 14.2 30.3506 14.728 30.3506 15.4C30.3506 14.728 30.8786 14.2 31.5506 14.2C32.2226 14.2 32.7506 14.728 32.7506 15.4C32.7506 16.072 32.2226 16.6 31.5506 16.6C30.8786 16.6 30.3506 16.072 30.3506 15.4C30.3506 16.072 29.8226 16.6 29.1506 16.6C28.4786 16.6 27.9506 16.072 27.9506 15.4ZM30.3506 8.2C30.3506 8.872 29.8226 9.4 29.1506 9.4C28.4786 9.4 27.9506 8.872 27.9506 8.2C27.9506 8.872 27.4226 9.4 26.7506 9.4C26.0786 9.4 25.5506 8.872 25.5506 8.2C25.5506 8.872 25.0226 9.4 24.3506 9.4C23.6786 9.4 23.1506 8.872 23.1506 8.2C23.1506 7.528 23.6786 7 24.3506 7C25.0226 7 25.5506 7.528 25.5506 8.2C25.5506 7.528 26.0786 7 26.7506 7C27.4226 7 27.9506 7.528 27.9506 8.2C27.9506 7.528 28.4786 7 29.1506 7C29.8226 7 30.3506 7.528 30.3506 8.2C30.3506 7.528 30.8786 7 31.5506 7C32.2226 7 32.7506 7.528 32.7506 8.2C32.7506 7.528 33.2786 7 33.9506 7C34.6226 7 35.1506 7.528 35.1506 8.2C35.1506 8.872 34.6226 9.4 33.9506 9.4C33.2786 9.4 32.7506 8.872 32.7506 8.2C32.7506 8.872 32.2226 9.4 31.5506 9.4C30.8786 9.4 30.3506 8.872 30.3506 8.2Z" fill="#F1F1F1"/>
<path d="M44.5013 22.6C44.5013 23.272 43.9733 23.8 43.3013 23.8C42.6293 23.8 42.1012 23.272 42.1012 22.6C42.1012 23.272 41.5733 23.8 40.9013 23.8C40.2293 23.8 39.7013 23.272 39.7013 22.6C39.7013 21.928 40.2293 21.4 40.9013 21.4C41.5733 21.4 42.1012 21.928 42.1012 22.6C42.1012 21.928 42.6293 21.4 43.3013 21.4C43.9733 21.4 44.5013 21.928 44.5013 22.6C44.5013 21.928 45.0293 21.4 45.7013 21.4C46.3733 21.4 46.9013 21.928 46.9013 22.6C46.9013 23.272 46.3733 23.8 45.7013 23.8C45.0293 23.8 44.5013 23.272 44.5013 22.6ZM37.3013 15.4C37.3013 14.728 37.8293 14.2 38.5013 14.2C39.1733 14.2 39.7013 14.728 39.7013 15.4C39.7013 16.072 39.1733 16.6 38.5013 16.6C37.8293 16.6 37.3013 16.072 37.3013 15.4ZM37.3013 19C37.3013 18.328 37.8293 17.8 38.5013 17.8C39.1733 17.8 39.7013 18.328 39.7013 19C39.7013 19.672 39.1733 20.2 38.5013 20.2C37.8293 20.2 37.3013 19.672 37.3013 19ZM46.9013 19C46.9013 18.328 47.4293 17.8 48.1012 17.8C48.7732 17.8 49.3013 18.328 49.3013 19C49.3013 19.672 48.7732 20.2 48.1012 20.2C47.4293 20.2 46.9013 19.672 46.9013 19ZM37.3013 11.8C37.3013 11.128 37.8293 10.6 38.5013 10.6C39.1733 10.6 39.7013 11.128 39.7013 11.8C39.7013 12.472 39.1733 13 38.5013 13C37.8293 13 37.3013 12.472 37.3013 11.8ZM46.9013 15.4C46.9013 14.728 47.4293 14.2 48.1012 14.2C48.7732 14.2 49.3013 14.728 49.3013 15.4C49.3013 16.072 48.7732 16.6 48.1012 16.6C47.4293 16.6 46.9013 16.072 46.9013 15.4ZM44.5013 8.2C44.5013 8.872 43.9733 9.4 43.3013 9.4C42.6293 9.4 42.1012 8.872 42.1012 8.2C42.1012 8.872 41.5733 9.4 40.9013 9.4C40.2293 9.4 39.7013 8.872 39.7013 8.2C39.7013 7.528 40.2293 7 40.9013 7C41.5733 7 42.1012 7.528 42.1012 8.2C42.1012 7.528 42.6293 7 43.3013 7C43.9733 7 44.5013 7.528 44.5013 8.2C44.5013 7.528 45.0293 7 45.7013 7C46.3733 7 46.9013 7.528 46.9013 8.2C46.9013 8.872 46.3733 9.4 45.7013 9.4C45.0293 9.4 44.5013 8.872 44.5013 8.2ZM46.9013 11.8C46.9013 11.128 47.4293 10.6 48.1012 10.6C48.7732 10.6 49.3013 11.128 49.3013 11.8C49.3013 12.472 48.7732 13 48.1012 13C47.4293 13 46.9013 12.472 46.9013 11.8Z" fill="#F1F1F1"/>
<path d="M56.2519 22.6C56.2519 21.928 56.7799 21.4 57.4519 21.4C58.1239 21.4 58.6519 21.928 58.6519 22.6C58.6519 23.272 58.1239 23.8 57.4519 23.8C56.7799 23.8 56.2519 23.272 56.2519 22.6ZM56.2519 19C56.2519 18.328 56.7799 17.8 57.4519 17.8C58.1239 17.8 58.6519 18.328 58.6519 19C58.6519 19.672 58.1239 20.2 57.4519 20.2C56.7799 20.2 56.2519 19.672 56.2519 19ZM56.2519 11.8C56.2519 11.128 56.7799 10.6 57.4519 10.6C58.1239 10.6 58.6519 11.128 58.6519 11.8C58.6519 12.472 58.1239 13 57.4519 13C56.7799 13 56.2519 12.472 56.2519 11.8ZM56.2519 15.4C56.2519 14.728 56.7799 14.2 57.4519 14.2C58.1239 14.2 58.6519 14.728 58.6519 15.4C58.6519 16.072 58.1239 16.6 57.4519 16.6C56.7799 16.6 56.2519 16.072 56.2519 15.4ZM58.6519 8.2C58.6519 8.872 58.1239 9.4 57.4519 9.4C56.7799 9.4 56.2519 8.872 56.2519 8.2C56.2519 8.872 55.7239 9.4 55.0519 9.4C54.3799 9.4 53.8519 8.872 53.8519 8.2C53.8519 8.872 53.3239 9.4 52.6519 9.4C51.9799 9.4 51.4519 8.872 51.4519 8.2C51.4519 7.528 51.9799 7 52.6519 7C53.3239 7 53.8519 7.528 53.8519 8.2C53.8519 7.528 54.3799 7 55.0519 7C55.7239 7 56.2519 7.528 56.2519 8.2C56.2519 7.528 56.7799 7 57.4519 7C58.1239 7 58.6519 7.528 58.6519 8.2C58.6519 7.528 59.1799 7 59.8519 7C60.5239 7 61.0519 7.528 61.0519 8.2C61.0519 7.528 61.5799 7 62.2519 7C62.9239 7 63.4519 7.528 63.4519 8.2C63.4519 8.872 62.9239 9.4 62.2519 9.4C61.5799 9.4 61.0519 8.872 61.0519 8.2C61.0519 8.872 60.5239 9.4 59.8519 9.4C59.1799 9.4 58.6519 8.872 58.6519 8.2Z" fill="#F1F1F1"/>
<path d="M65.6025 19C65.6025 18.328 66.1305 17.8 66.8025 17.8C67.4745 17.8 68.0025 18.328 68.0025 19C68.0025 19.672 67.4745 20.2 66.8025 20.2C66.1305 20.2 65.6025 19.672 65.6025 19ZM72.8025 22.6C72.8025 23.272 72.2745 23.8 71.6025 23.8C70.9305 23.8 70.4025 23.272 70.4025 22.6C70.4025 23.272 69.8745 23.8 69.2025 23.8C68.5305 23.8 68.0025 23.272 68.0025 22.6C68.0025 23.272 67.4745 23.8 66.8025 23.8C66.1305 23.8 65.6025 23.272 65.6025 22.6C65.6025 21.928 66.1305 21.4 66.8025 21.4C67.4745 21.4 68.0025 21.928 68.0025 22.6C68.0025 21.928 68.5305 21.4 69.2025 21.4C69.8745 21.4 70.4025 21.928 70.4025 22.6C70.4025 21.928 70.9305 21.4 71.6025 21.4C72.2745 21.4 72.8025 21.928 72.8025 22.6C72.8025 21.928 73.3305 21.4 74.0025 21.4C74.6745 21.4 75.2025 21.928 75.2025 22.6C75.2025 21.928 75.7305 21.4 76.4025 21.4C77.0745 21.4 77.6025 21.928 77.6025 22.6C77.6025 23.272 77.0745 23.8 76.4025 23.8C75.7305 23.8 75.2025 23.272 75.2025 22.6C75.2025 23.272 74.6745 23.8 74.0025 23.8C73.3305 23.8 72.8025 23.272 72.8025 22.6ZM65.6025 11.8C65.6025 11.128 66.1305 10.6 66.8025 10.6C67.4745 10.6 68.0025 11.128 68.0025 11.8C68.0025 12.472 67.4745 13 66.8025 13C66.1305 13 65.6025 12.472 65.6025 11.8ZM70.4025 15.4C70.4025 16.072 69.8745 16.6 69.2025 16.6C68.5305 16.6 68.0025 16.072 68.0025 15.4C68.0025 16.072 67.4745 16.6 66.8025 16.6C66.1305 16.6 65.6025 16.072 65.6025 15.4C65.6025 14.728 66.1305 14.2 66.8025 14.2C67.4745 14.2 68.0025 14.728 68.0025 15.4C68.0025 14.728 68.5305 14.2 69.2025 14.2C69.8745 14.2 70.4025 14.728 70.4025 15.4C70.4025 14.728 70.9305 14.2 71.6025 14.2C72.2745 14.2 72.8025 14.728 72.8025 15.4C72.8025 14.728 73.3305 14.2 74.0025 14.2C74.6745 14.2 75.2025 14.728 75.2025 15.4C75.2025 16.072 74.6745 16.6 74.0025 16.6C73.3305 16.6 72.8025 16.072 72.8025 15.4C72.8025 16.072 72.2745 16.6 71.6025 16.6C70.9305 16.6 70.4025 16.072 70.4025 15.4ZM72.8025 8.2C72.8025 8.872 72.2745 9.4 71.6025 9.4C70.9305 9.4 70.4025 8.872 70.4025 8.2C70.4025 8.872 69.8745 9.4 69.2025 9.4C68.5305 9.4 68.0025 8.872 68.0025 8.2C68.0025 8.872 67.4745 9.4 66.8025 9.4C66.1305 9.4 65.6025 8.872 65.6025 8.2C65.6025 7.528 66.1305 7 66.8025 7C67.4745 7 68.0025 7.528 68.0025 8.2C68.0025 7.528 68.5305 7 69.2025 7C69.8745 7 70.4025 7.528 70.4025 8.2C70.4025 7.528 70.9305 7 71.6025 7C72.2745 7 72.8025 7.528 72.8025 8.2C72.8025 7.528 73.3305 7 74.0025 7C74.6745 7 75.2025 7.528 75.2025 8.2C75.2025 7.528 75.7305 7 76.4025 7C77.0745 7 77.6025 7.528 77.6025 8.2C77.6025 8.872 77.0745 9.4 76.4025 9.4C75.7305 9.4 75.2025 8.872 75.2025 8.2C75.2025 8.872 74.6745 9.4 74.0025 9.4C73.3305 9.4 72.8025 8.872 72.8025 8.2Z" fill="#F1F1F1"/>
<path d="M86.9531 22.6C86.9531 23.272 86.4251 23.8 85.7531 23.8C85.0811 23.8 84.5531 23.272 84.5531 22.6C84.5531 23.272 84.0251 23.8 83.3531 23.8C82.6811 23.8 82.1531 23.272 82.1531 22.6C82.1531 21.928 82.6811 21.4 83.3531 21.4C84.0251 21.4 84.5531 21.928 84.5531 22.6C84.5531 21.928 85.0811 21.4 85.7531 21.4C86.4251 21.4 86.9531 21.928 86.9531 22.6C86.9531 21.928 87.4811 21.4 88.1531 21.4C88.8251 21.4 89.3531 21.928 89.3531 22.6C89.3531 23.272 88.8251 23.8 88.1531 23.8C87.4811 23.8 86.9531 23.272 86.9531 22.6ZM79.7531 15.4C79.7531 14.728 80.2811 14.2 80.9531 14.2C81.6251 14.2 82.1531 14.728 82.1531 15.4C82.1531 16.072 81.6251 16.6 80.9531 16.6C80.2811 16.6 79.7531 16.072 79.7531 15.4ZM79.7531 19C79.7531 18.328 80.2811 17.8 80.9531 17.8C81.6251 17.8 82.1531 18.328 82.1531 19C82.1531 19.672 81.6251 20.2 80.9531 20.2C80.2811 20.2 79.7531 19.672 79.7531 19ZM89.3531 19C89.3531 18.328 89.8811 17.8 90.5531 17.8C91.2251 17.8 91.7531 18.328 91.7531 19C91.7531 19.672 91.2251 20.2 90.5531 20.2C89.8811 20.2 89.3531 19.672 89.3531 19ZM79.7531 11.8C79.7531 11.128 80.2811 10.6 80.9531 10.6C81.6251 10.6 82.1531 11.128 82.1531 11.8C82.1531 12.472 81.6251 13 80.9531 13C80.2811 13 79.7531 12.472 79.7531 11.8ZM86.9531 8.2C86.9531 8.872 86.4251 9.4 85.7531 9.4C85.0811 9.4 84.5531 8.872 84.5531 8.2C84.5531 8.872 84.0251 9.4 83.3531 9.4C82.6811 9.4 82.1531 8.872 82.1531 8.2C82.1531 7.528 82.6811 7 83.3531 7C84.0251 7 84.5531 7.528 84.5531 8.2C84.5531 7.528 85.0811 7 85.7531 7C86.4251 7 86.9531 7.528 86.9531 8.2C86.9531 7.528 87.4811 7 88.1531 7C88.8251 7 89.3531 7.528 89.3531 8.2C89.3531 8.872 88.8251 9.4 88.1531 9.4C87.4811 9.4 86.9531 8.872 86.9531 8.2ZM89.3531 11.8C89.3531 11.128 89.8811 10.6 90.5531 10.6C91.2251 10.6 91.7531 11.128 91.7531 11.8C91.7531 12.472 91.2251 13 90.5531 13C89.8811 13 89.3531 12.472 89.3531 11.8Z" fill="#F1F1F1"/>
<path d="M93.9037 22.6C93.9037 21.928 94.4317 21.4 95.1037 21.4C95.7757 21.4 96.3037 21.928 96.3037 22.6C96.3037 23.272 95.7757 23.8 95.1037 23.8C94.4317 23.8 93.9037 23.272 93.9037 22.6ZM93.9037 19C93.9037 18.328 94.4317 17.8 95.1037 17.8C95.7757 17.8 96.3037 18.328 96.3037 19C96.3037 19.672 95.7757 20.2 95.1037 20.2C94.4317 20.2 93.9037 19.672 93.9037 19ZM103.504 19C103.504 18.328 104.032 17.8 104.704 17.8C105.376 17.8 105.904 18.328 105.904 19C105.904 19.672 105.376 20.2 104.704 20.2C104.032 20.2 103.504 19.672 103.504 19ZM103.504 22.6C103.504 21.928 104.032 21.4 104.704 21.4C105.376 21.4 105.904 21.928 105.904 22.6C105.904 23.272 105.376 23.8 104.704 23.8C104.032 23.8 103.504 23.272 103.504 22.6ZM93.9037 11.8C93.9037 11.128 94.4317 10.6 95.1037 10.6C95.7757 10.6 96.3037 11.128 96.3037 11.8C96.3037 12.472 95.7757 13 95.1037 13C94.4317 13 93.9037 12.472 93.9037 11.8ZM103.504 15.4C103.504 16.072 102.976 16.6 102.304 16.6C101.632 16.6 101.104 16.072 101.104 15.4C101.104 16.072 100.576 16.6 99.9037 16.6C99.2317 16.6 98.7038 16.072 98.7038 15.4C98.7038 16.072 98.1757 16.6 97.5037 16.6C96.8317 16.6 96.3037 16.072 96.3037 15.4C96.3037 16.072 95.7757 16.6 95.1037 16.6C94.4317 16.6 93.9037 16.072 93.9037 15.4C93.9037 14.728 94.4317 14.2 95.1037 14.2C95.7757 14.2 96.3037 14.728 96.3037 15.4C96.3037 14.728 96.8317 14.2 97.5037 14.2C98.1757 14.2 98.7038 14.728 98.7038 15.4C98.7038 14.728 99.2317 14.2 99.9037 14.2C100.576 14.2 101.104 14.728 101.104 15.4C101.104 14.728 101.632 14.2 102.304 14.2C102.976 14.2 103.504 14.728 103.504 15.4C103.504 14.728 104.032 14.2 104.704 14.2C105.376 14.2 105.904 14.728 105.904 15.4C105.904 16.072 105.376 16.6 104.704 16.6C104.032 16.6 103.504 16.072 103.504 15.4ZM93.9037 8.2C93.9037 7.528 94.4317 7 95.1037 7C95.7757 7 96.3037 7.528 96.3037 8.2C96.3037 8.872 95.7757 9.4 95.1037 9.4C94.4317 9.4 93.9037 8.872 93.9037 8.2ZM103.504 8.2C103.504 7.528 104.032 7 104.704 7C105.376 7 105.904 7.528 105.904 8.2C105.904 8.872 105.376 9.4 104.704 9.4C104.032 9.4 103.504 8.872 103.504 8.2ZM103.504 11.8C103.504 11.128 104.032 10.6 104.704 10.6C105.376 10.6 105.904 11.128 105.904 11.8C105.904 12.472 105.376 13 104.704 13C104.032 13 103.504 12.472 103.504 11.8Z" fill="#F1F1F1"/>
</g>
<defs>
<clipPath id="clip0_23989_5535">
<rect width="13" height="18" fill="white" transform="translate(8.5 6)"/>
</clipPath>
</defs>
</svg>
