<svg width="98" height="17" viewBox="0 0 98 17" fill="none" xmlns="http://www.w3.org/2000/svg">
<path d="M0.200195 15.7992C0.200195 15.1272 0.728195 14.5992 1.4002 14.5992C2.0722 14.5992 2.6002 15.1272 2.6002 15.7992C2.6002 16.4712 2.0722 16.9992 1.4002 16.9992C0.728195 16.9992 0.200195 16.4712 0.200195 15.7992ZM9.8002 15.7992C9.8002 15.1272 10.3282 14.5992 11.0002 14.5992C11.6722 14.5992 12.2002 15.1272 12.2002 15.7992C12.2002 16.4712 11.6722 16.9992 11.0002 16.9992C10.3282 16.9992 9.8002 16.4712 9.8002 15.7992ZM0.200195 8.59922C0.200195 7.92722 0.728195 7.39922 1.4002 7.39922C2.0722 7.39922 2.6002 7.92722 2.6002 8.59922C2.6002 9.27122 2.0722 9.79922 1.4002 9.79922C0.728195 9.79922 0.200195 9.27122 0.200195 8.59922ZM0.200195 12.1992C0.200195 11.5272 0.728195 10.9992 1.4002 10.9992C2.0722 10.9992 2.6002 11.5272 2.6002 12.1992C2.6002 12.8712 2.0722 13.3992 1.4002 13.3992C0.728195 13.3992 0.200195 12.8712 0.200195 12.1992ZM5.0002 8.59922C5.0002 7.92722 5.5282 7.39922 6.2002 7.39922C6.8722 7.39922 7.4002 7.92722 7.4002 8.59922C7.4002 9.27122 6.8722 9.79922 6.2002 9.79922C5.5282 9.79922 5.0002 9.27122 5.0002 8.59922ZM7.4002 12.1992C7.4002 11.5272 7.9282 10.9992 8.6002 10.9992C9.2722 10.9992 9.8002 11.5272 9.8002 12.1992C9.8002 11.5272 10.3282 10.9992 11.0002 10.9992C11.6722 10.9992 12.2002 11.5272 12.2002 12.1992C12.2002 12.8712 11.6722 13.3992 11.0002 13.3992C10.3282 13.3992 9.8002 12.8712 9.8002 12.1992C9.8002 12.8712 9.2722 13.3992 8.6002 13.3992C7.9282 13.3992 7.4002 12.8712 7.4002 12.1992ZM0.200195 1.39922C0.200195 0.727219 0.728195 0.199219 1.4002 0.199219C2.0722 0.199219 2.6002 0.727219 2.6002 1.39922C2.6002 2.07122 2.0722 2.59922 1.4002 2.59922C0.728195 2.59922 0.200195 2.07122 0.200195 1.39922ZM2.6002 4.99922C2.6002 5.67122 2.0722 6.19922 1.4002 6.19922C0.728195 6.19922 0.200195 5.67122 0.200195 4.99922C0.200195 4.32722 0.728195 3.79922 1.4002 3.79922C2.0722 3.79922 2.6002 4.32722 2.6002 4.99922C2.6002 4.32722 3.1282 3.79922 3.8002 3.79922C4.4722 3.79922 5.0002 4.32722 5.0002 4.99922C5.0002 5.67122 4.4722 6.19922 3.8002 6.19922C3.1282 6.19922 2.6002 5.67122 2.6002 4.99922ZM9.8002 1.39922C9.8002 0.727219 10.3282 0.199219 11.0002 0.199219C11.6722 0.199219 12.2002 0.727219 12.2002 1.39922C12.2002 2.07122 11.6722 2.59922 11.0002 2.59922C10.3282 2.59922 9.8002 2.07122 9.8002 1.39922ZM9.8002 4.99922C9.8002 4.32722 10.3282 3.79922 11.0002 3.79922C11.6722 3.79922 12.2002 4.32722 12.2002 4.99922C12.2002 5.67122 11.6722 6.19922 11.0002 6.19922C10.3282 6.19922 9.8002 5.67122 9.8002 4.99922ZM9.8002 8.59922C9.8002 7.92722 10.3282 7.39922 11.0002 7.39922C11.6722 7.39922 12.2002 7.92722 12.2002 8.59922C12.2002 9.27122 11.6722 9.79922 11.0002 9.79922C10.3282 9.79922 9.8002 9.27122 9.8002 8.59922Z" fill="#F1F1F1"/>
<path d="M14.3508 12.1992C14.3508 11.5272 14.8788 10.9992 15.5508 10.9992C16.2228 10.9992 16.7508 11.5272 16.7508 12.1992C16.7508 12.8712 16.2228 13.3992 15.5508 13.3992C14.8788 13.3992 14.3508 12.8712 14.3508 12.1992ZM21.5508 15.7992C21.5508 16.4712 21.0228 16.9992 20.3508 16.9992C19.6788 16.9992 19.1508 16.4712 19.1508 15.7992C19.1508 16.4712 18.6228 16.9992 17.9508 16.9992C17.2788 16.9992 16.7508 16.4712 16.7508 15.7992C16.7508 16.4712 16.2228 16.9992 15.5508 16.9992C14.8788 16.9992 14.3508 16.4712 14.3508 15.7992C14.3508 15.1272 14.8788 14.5992 15.5508 14.5992C16.2228 14.5992 16.7508 15.1272 16.7508 15.7992C16.7508 15.1272 17.2788 14.5992 17.9508 14.5992C18.6228 14.5992 19.1508 15.1272 19.1508 15.7992C19.1508 15.1272 19.6788 14.5992 20.3508 14.5992C21.0228 14.5992 21.5508 15.1272 21.5508 15.7992C21.5508 15.1272 22.0788 14.5992 22.7508 14.5992C23.4228 14.5992 23.9508 15.1272 23.9508 15.7992C23.9508 15.1272 24.4788 14.5992 25.1508 14.5992C25.8228 14.5992 26.3508 15.1272 26.3508 15.7992C26.3508 16.4712 25.8228 16.9992 25.1508 16.9992C24.4788 16.9992 23.9508 16.4712 23.9508 15.7992C23.9508 16.4712 23.4228 16.9992 22.7508 16.9992C22.0788 16.9992 21.5508 16.4712 21.5508 15.7992ZM14.3508 4.99922C14.3508 4.32722 14.8788 3.79922 15.5508 3.79922C16.2228 3.79922 16.7508 4.32722 16.7508 4.99922C16.7508 5.67122 16.2228 6.19922 15.5508 6.19922C14.8788 6.19922 14.3508 5.67122 14.3508 4.99922ZM19.1508 8.59922C19.1508 9.27122 18.6228 9.79922 17.9508 9.79922C17.2788 9.79922 16.7508 9.27122 16.7508 8.59922C16.7508 9.27122 16.2228 9.79922 15.5508 9.79922C14.8788 9.79922 14.3508 9.27122 14.3508 8.59922C14.3508 7.92722 14.8788 7.39922 15.5508 7.39922C16.2228 7.39922 16.7508 7.92722 16.7508 8.59922C16.7508 7.92722 17.2788 7.39922 17.9508 7.39922C18.6228 7.39922 19.1508 7.92722 19.1508 8.59922C19.1508 7.92722 19.6788 7.39922 20.3508 7.39922C21.0228 7.39922 21.5508 7.92722 21.5508 8.59922C21.5508 7.92722 22.0788 7.39922 22.7508 7.39922C23.4228 7.39922 23.9508 7.92722 23.9508 8.59922C23.9508 9.27122 23.4228 9.79922 22.7508 9.79922C22.0788 9.79922 21.5508 9.27122 21.5508 8.59922C21.5508 9.27122 21.0228 9.79922 20.3508 9.79922C19.6788 9.79922 19.1508 9.27122 19.1508 8.59922ZM21.5508 1.39922C21.5508 2.07122 21.0228 2.59922 20.3508 2.59922C19.6788 2.59922 19.1508 2.07122 19.1508 1.39922C19.1508 2.07122 18.6228 2.59922 17.9508 2.59922C17.2788 2.59922 16.7508 2.07122 16.7508 1.39922C16.7508 2.07122 16.2228 2.59922 15.5508 2.59922C14.8788 2.59922 14.3508 2.07122 14.3508 1.39922C14.3508 0.727219 14.8788 0.199219 15.5508 0.199219C16.2228 0.199219 16.7508 0.727219 16.7508 1.39922C16.7508 0.727219 17.2788 0.199219 17.9508 0.199219C18.6228 0.199219 19.1508 0.727219 19.1508 1.39922C19.1508 0.727219 19.6788 0.199219 20.3508 0.199219C21.0228 0.199219 21.5508 0.727219 21.5508 1.39922C21.5508 0.727219 22.0788 0.199219 22.7508 0.199219C23.4228 0.199219 23.9508 0.727219 23.9508 1.39922C23.9508 0.727219 24.4788 0.199219 25.1508 0.199219C25.8228 0.199219 26.3508 0.727219 26.3508 1.39922C26.3508 2.07122 25.8228 2.59922 25.1508 2.59922C24.4788 2.59922 23.9508 2.07122 23.9508 1.39922C23.9508 2.07122 23.4228 2.59922 22.7508 2.59922C22.0788 2.59922 21.5508 2.07122 21.5508 1.39922Z" fill="#F1F1F1"/>
<path d="M35.7014 15.7992C35.7014 16.4712 35.1734 16.9992 34.5014 16.9992C33.8294 16.9992 33.3014 16.4712 33.3014 15.7992C33.3014 16.4712 32.7734 16.9992 32.1014 16.9992C31.4294 16.9992 30.9014 16.4712 30.9014 15.7992C30.9014 15.1272 31.4294 14.5992 32.1014 14.5992C32.7734 14.5992 33.3014 15.1272 33.3014 15.7992C33.3014 15.1272 33.8294 14.5992 34.5014 14.5992C35.1734 14.5992 35.7014 15.1272 35.7014 15.7992C35.7014 15.1272 36.2294 14.5992 36.9014 14.5992C37.5734 14.5992 38.1014 15.1272 38.1014 15.7992C38.1014 16.4712 37.5734 16.9992 36.9014 16.9992C36.2294 16.9992 35.7014 16.4712 35.7014 15.7992ZM28.5014 8.59922C28.5014 7.92722 29.0294 7.39922 29.7014 7.39922C30.3734 7.39922 30.9014 7.92722 30.9014 8.59922C30.9014 9.27122 30.3734 9.79922 29.7014 9.79922C29.0294 9.79922 28.5014 9.27122 28.5014 8.59922ZM28.5014 12.1992C28.5014 11.5272 29.0294 10.9992 29.7014 10.9992C30.3734 10.9992 30.9014 11.5272 30.9014 12.1992C30.9014 12.8712 30.3734 13.3992 29.7014 13.3992C29.0294 13.3992 28.5014 12.8712 28.5014 12.1992ZM38.1014 12.1992C38.1014 11.5272 38.6294 10.9992 39.3014 10.9992C39.9734 10.9992 40.5014 11.5272 40.5014 12.1992C40.5014 12.8712 39.9734 13.3992 39.3014 13.3992C38.6294 13.3992 38.1014 12.8712 38.1014 12.1992ZM28.5014 4.99922C28.5014 4.32722 29.0294 3.79922 29.7014 3.79922C30.3734 3.79922 30.9014 4.32722 30.9014 4.99922C30.9014 5.67122 30.3734 6.19922 29.7014 6.19922C29.0294 6.19922 28.5014 5.67122 28.5014 4.99922ZM38.1014 8.59922C38.1014 7.92722 38.6294 7.39922 39.3014 7.39922C39.9734 7.39922 40.5014 7.92722 40.5014 8.59922C40.5014 9.27122 39.9734 9.79922 39.3014 9.79922C38.6294 9.79922 38.1014 9.27122 38.1014 8.59922ZM35.7014 1.39922C35.7014 2.07122 35.1734 2.59922 34.5014 2.59922C33.8294 2.59922 33.3014 2.07122 33.3014 1.39922C33.3014 2.07122 32.7734 2.59922 32.1014 2.59922C31.4294 2.59922 30.9014 2.07122 30.9014 1.39922C30.9014 0.727219 31.4294 0.199219 32.1014 0.199219C32.7734 0.199219 33.3014 0.727219 33.3014 1.39922C33.3014 0.727219 33.8294 0.199219 34.5014 0.199219C35.1734 0.199219 35.7014 0.727219 35.7014 1.39922C35.7014 0.727219 36.2294 0.199219 36.9014 0.199219C37.5734 0.199219 38.1014 0.727219 38.1014 1.39922C38.1014 2.07122 37.5734 2.59922 36.9014 2.59922C36.2294 2.59922 35.7014 2.07122 35.7014 1.39922ZM38.1014 4.99922C38.1014 4.32722 38.6294 3.79922 39.3014 3.79922C39.9734 3.79922 40.5014 4.32722 40.5014 4.99922C40.5014 5.67122 39.9734 6.19922 39.3014 6.19922C38.6294 6.19922 38.1014 5.67122 38.1014 4.99922Z" fill="#F1F1F1"/>
<path d="M47.4521 15.7992C47.4521 15.1272 47.9801 14.5992 48.6521 14.5992C49.3241 14.5992 49.8521 15.1272 49.8521 15.7992C49.8521 16.4712 49.3241 16.9992 48.6521 16.9992C47.9801 16.9992 47.4521 16.4712 47.4521 15.7992ZM47.4521 12.1992C47.4521 11.5272 47.9801 10.9992 48.6521 10.9992C49.3241 10.9992 49.8521 11.5272 49.8521 12.1992C49.8521 12.8712 49.3241 13.3992 48.6521 13.3992C47.9801 13.3992 47.4521 12.8712 47.4521 12.1992ZM47.4521 4.99922C47.4521 4.32722 47.9801 3.79922 48.6521 3.79922C49.3241 3.79922 49.8521 4.32722 49.8521 4.99922C49.8521 5.67122 49.3241 6.19922 48.6521 6.19922C47.9801 6.19922 47.4521 5.67122 47.4521 4.99922ZM47.4521 8.59922C47.4521 7.92722 47.9801 7.39922 48.6521 7.39922C49.3241 7.39922 49.8521 7.92722 49.8521 8.59922C49.8521 9.27122 49.3241 9.79922 48.6521 9.79922C47.9801 9.79922 47.4521 9.27122 47.4521 8.59922ZM49.8521 1.39922C49.8521 2.07122 49.3241 2.59922 48.6521 2.59922C47.9801 2.59922 47.4521 2.07122 47.4521 1.39922C47.4521 2.07122 46.9241 2.59922 46.2521 2.59922C45.5801 2.59922 45.0521 2.07122 45.0521 1.39922C45.0521 2.07122 44.5241 2.59922 43.8521 2.59922C43.1801 2.59922 42.6521 2.07122 42.6521 1.39922C42.6521 0.727219 43.1801 0.199219 43.8521 0.199219C44.5241 0.199219 45.0521 0.727219 45.0521 1.39922C45.0521 0.727219 45.5801 0.199219 46.2521 0.199219C46.9241 0.199219 47.4521 0.727219 47.4521 1.39922C47.4521 0.727219 47.9801 0.199219 48.6521 0.199219C49.3241 0.199219 49.8521 0.727219 49.8521 1.39922C49.8521 0.727219 50.3801 0.199219 51.0521 0.199219C51.7241 0.199219 52.2521 0.727219 52.2521 1.39922C52.2521 0.727219 52.7801 0.199219 53.4521 0.199219C54.1241 0.199219 54.6521 0.727219 54.6521 1.39922C54.6521 2.07122 54.1241 2.59922 53.4521 2.59922C52.7801 2.59922 52.2521 2.07122 52.2521 1.39922C52.2521 2.07122 51.7241 2.59922 51.0521 2.59922C50.3801 2.59922 49.8521 2.07122 49.8521 1.39922Z" fill="#F1F1F1"/>
<path d="M56.8027 12.1992C56.8027 11.5272 57.3307 10.9992 58.0027 10.9992C58.6747 10.9992 59.2027 11.5272 59.2027 12.1992C59.2027 12.8712 58.6747 13.3992 58.0027 13.3992C57.3307 13.3992 56.8027 12.8712 56.8027 12.1992ZM64.0027 15.7992C64.0027 16.4712 63.4747 16.9992 62.8027 16.9992C62.1307 16.9992 61.6027 16.4712 61.6027 15.7992C61.6027 16.4712 61.0747 16.9992 60.4027 16.9992C59.7307 16.9992 59.2027 16.4712 59.2027 15.7992C59.2027 16.4712 58.6747 16.9992 58.0027 16.9992C57.3307 16.9992 56.8027 16.4712 56.8027 15.7992C56.8027 15.1272 57.3307 14.5992 58.0027 14.5992C58.6747 14.5992 59.2027 15.1272 59.2027 15.7992C59.2027 15.1272 59.7307 14.5992 60.4027 14.5992C61.0747 14.5992 61.6027 15.1272 61.6027 15.7992C61.6027 15.1272 62.1307 14.5992 62.8027 14.5992C63.4747 14.5992 64.0027 15.1272 64.0027 15.7992C64.0027 15.1272 64.5307 14.5992 65.2027 14.5992C65.8747 14.5992 66.4027 15.1272 66.4027 15.7992C66.4027 15.1272 66.9307 14.5992 67.6027 14.5992C68.2747 14.5992 68.8027 15.1272 68.8027 15.7992C68.8027 16.4712 68.2747 16.9992 67.6027 16.9992C66.9307 16.9992 66.4027 16.4712 66.4027 15.7992C66.4027 16.4712 65.8747 16.9992 65.2027 16.9992C64.5307 16.9992 64.0027 16.4712 64.0027 15.7992ZM56.8027 4.99922C56.8027 4.32722 57.3307 3.79922 58.0027 3.79922C58.6747 3.79922 59.2027 4.32722 59.2027 4.99922C59.2027 5.67122 58.6747 6.19922 58.0027 6.19922C57.3307 6.19922 56.8027 5.67122 56.8027 4.99922ZM61.6027 8.59922C61.6027 9.27122 61.0747 9.79922 60.4027 9.79922C59.7307 9.79922 59.2027 9.27122 59.2027 8.59922C59.2027 9.27122 58.6747 9.79922 58.0027 9.79922C57.3307 9.79922 56.8027 9.27122 56.8027 8.59922C56.8027 7.92722 57.3307 7.39922 58.0027 7.39922C58.6747 7.39922 59.2027 7.92722 59.2027 8.59922C59.2027 7.92722 59.7307 7.39922 60.4027 7.39922C61.0747 7.39922 61.6027 7.92722 61.6027 8.59922C61.6027 7.92722 62.1307 7.39922 62.8027 7.39922C63.4747 7.39922 64.0027 7.92722 64.0027 8.59922C64.0027 7.92722 64.5307 7.39922 65.2027 7.39922C65.8747 7.39922 66.4027 7.92722 66.4027 8.59922C66.4027 9.27122 65.8747 9.79922 65.2027 9.79922C64.5307 9.79922 64.0027 9.27122 64.0027 8.59922C64.0027 9.27122 63.4747 9.79922 62.8027 9.79922C62.1307 9.79922 61.6027 9.27122 61.6027 8.59922ZM64.0027 1.39922C64.0027 2.07122 63.4747 2.59922 62.8027 2.59922C62.1307 2.59922 61.6027 2.07122 61.6027 1.39922C61.6027 2.07122 61.0747 2.59922 60.4027 2.59922C59.7307 2.59922 59.2027 2.07122 59.2027 1.39922C59.2027 2.07122 58.6747 2.59922 58.0027 2.59922C57.3307 2.59922 56.8027 2.07122 56.8027 1.39922C56.8027 0.727219 57.3307 0.199219 58.0027 0.199219C58.6747 0.199219 59.2027 0.727219 59.2027 1.39922C59.2027 0.727219 59.7307 0.199219 60.4027 0.199219C61.0747 0.199219 61.6027 0.727219 61.6027 1.39922C61.6027 0.727219 62.1307 0.199219 62.8027 0.199219C63.4747 0.199219 64.0027 0.727219 64.0027 1.39922C64.0027 0.727219 64.5307 0.199219 65.2027 0.199219C65.8747 0.199219 66.4027 0.727219 66.4027 1.39922C66.4027 0.727219 66.9307 0.199219 67.6027 0.199219C68.2747 0.199219 68.8027 0.727219 68.8027 1.39922C68.8027 2.07122 68.2747 2.59922 67.6027 2.59922C66.9307 2.59922 66.4027 2.07122 66.4027 1.39922C66.4027 2.07122 65.8747 2.59922 65.2027 2.59922C64.5307 2.59922 64.0027 2.07122 64.0027 1.39922Z" fill="#F1F1F1"/>
<path d="M78.1533 15.7992C78.1533 16.4712 77.6253 16.9992 76.9533 16.9992C76.2813 16.9992 75.7533 16.4712 75.7533 15.7992C75.7533 16.4712 75.2253 16.9992 74.5533 16.9992C73.8813 16.9992 73.3533 16.4712 73.3533 15.7992C73.3533 15.1272 73.8813 14.5992 74.5533 14.5992C75.2253 14.5992 75.7533 15.1272 75.7533 15.7992C75.7533 15.1272 76.2813 14.5992 76.9533 14.5992C77.6253 14.5992 78.1533 15.1272 78.1533 15.7992C78.1533 15.1272 78.6813 14.5992 79.3533 14.5992C80.0253 14.5992 80.5533 15.1272 80.5533 15.7992C80.5533 16.4712 80.0253 16.9992 79.3533 16.9992C78.6813 16.9992 78.1533 16.4712 78.1533 15.7992ZM70.9533 8.59922C70.9533 7.92722 71.4813 7.39922 72.1533 7.39922C72.8253 7.39922 73.3533 7.92722 73.3533 8.59922C73.3533 9.27122 72.8253 9.79922 72.1533 9.79922C71.4813 9.79922 70.9533 9.27122 70.9533 8.59922ZM70.9533 12.1992C70.9533 11.5272 71.4813 10.9992 72.1533 10.9992C72.8253 10.9992 73.3533 11.5272 73.3533 12.1992C73.3533 12.8712 72.8253 13.3992 72.1533 13.3992C71.4813 13.3992 70.9533 12.8712 70.9533 12.1992ZM80.5533 12.1992C80.5533 11.5272 81.0813 10.9992 81.7533 10.9992C82.4253 10.9992 82.9533 11.5272 82.9533 12.1992C82.9533 12.8712 82.4253 13.3992 81.7533 13.3992C81.0813 13.3992 80.5533 12.8712 80.5533 12.1992ZM70.9533 4.99922C70.9533 4.32722 71.4813 3.79922 72.1533 3.79922C72.8253 3.79922 73.3533 4.32722 73.3533 4.99922C73.3533 5.67122 72.8253 6.19922 72.1533 6.19922C71.4813 6.19922 70.9533 5.67122 70.9533 4.99922ZM78.1533 1.39922C78.1533 2.07122 77.6253 2.59922 76.9533 2.59922C76.2813 2.59922 75.7533 2.07122 75.7533 1.39922C75.7533 2.07122 75.2253 2.59922 74.5533 2.59922C73.8813 2.59922 73.3533 2.07122 73.3533 1.39922C73.3533 0.727219 73.8813 0.199219 74.5533 0.199219C75.2253 0.199219 75.7533 0.727219 75.7533 1.39922C75.7533 0.727219 76.2813 0.199219 76.9533 0.199219C77.6253 0.199219 78.1533 0.727219 78.1533 1.39922C78.1533 0.727219 78.6813 0.199219 79.3533 0.199219C80.0253 0.199219 80.5533 0.727219 80.5533 1.39922C80.5533 2.07122 80.0253 2.59922 79.3533 2.59922C78.6813 2.59922 78.1533 2.07122 78.1533 1.39922ZM80.5533 4.99922C80.5533 4.32722 81.0813 3.79922 81.7533 3.79922C82.4253 3.79922 82.9533 4.32722 82.9533 4.99922C82.9533 5.67122 82.4253 6.19922 81.7533 6.19922C81.0813 6.19922 80.5533 5.67122 80.5533 4.99922Z" fill="#F1F1F1"/>
<path d="M85.1039 15.7992C85.1039 15.1272 85.6319 14.5992 86.3039 14.5992C86.9759 14.5992 87.5039 15.1272 87.5039 15.7992C87.5039 16.4712 86.9759 16.9992 86.3039 16.9992C85.6319 16.9992 85.1039 16.4712 85.1039 15.7992ZM85.1039 12.1992C85.1039 11.5272 85.6319 10.9992 86.3039 10.9992C86.9759 10.9992 87.5039 11.5272 87.5039 12.1992C87.5039 12.8712 86.9759 13.3992 86.3039 13.3992C85.6319 13.3992 85.1039 12.8712 85.1039 12.1992ZM94.7039 12.1992C94.7039 11.5272 95.2319 10.9992 95.9039 10.9992C96.5759 10.9992 97.1039 11.5272 97.1039 12.1992C97.1039 12.8712 96.5759 13.3992 95.9039 13.3992C95.2319 13.3992 94.7039 12.8712 94.7039 12.1992ZM94.7039 15.7992C94.7039 15.1272 95.2319 14.5992 95.9039 14.5992C96.5759 14.5992 97.1039 15.1272 97.1039 15.7992C97.1039 16.4712 96.5759 16.9992 95.9039 16.9992C95.2319 16.9992 94.7039 16.4712 94.7039 15.7992ZM85.1039 4.99922C85.1039 4.32722 85.6319 3.79922 86.3039 3.79922C86.9759 3.79922 87.5039 4.32722 87.5039 4.99922C87.5039 5.67122 86.9759 6.19922 86.3039 6.19922C85.6319 6.19922 85.1039 5.67122 85.1039 4.99922ZM94.7039 8.59922C94.7039 9.27122 94.1759 9.79922 93.5039 9.79922C92.8319 9.79922 92.3039 9.27122 92.3039 8.59922C92.3039 9.27122 91.7759 9.79922 91.1039 9.79922C90.4319 9.79922 89.9039 9.27122 89.9039 8.59922C89.9039 9.27122 89.3759 9.79922 88.7039 9.79922C88.0319 9.79922 87.5039 9.27122 87.5039 8.59922C87.5039 9.27122 86.9759 9.79922 86.3039 9.79922C85.6319 9.79922 85.1039 9.27122 85.1039 8.59922C85.1039 7.92722 85.6319 7.39922 86.3039 7.39922C86.9759 7.39922 87.5039 7.92722 87.5039 8.59922C87.5039 7.92722 88.0319 7.39922 88.7039 7.39922C89.3759 7.39922 89.9039 7.92722 89.9039 8.59922C89.9039 7.92722 90.4319 7.39922 91.1039 7.39922C91.7759 7.39922 92.3039 7.92722 92.3039 8.59922C92.3039 7.92722 92.8319 7.39922 93.5039 7.39922C94.1759 7.39922 94.7039 7.92722 94.7039 8.59922C94.7039 7.92722 95.2319 7.39922 95.9039 7.39922C96.5759 7.39922 97.1039 7.92722 97.1039 8.59922C97.1039 9.27122 96.5759 9.79922 95.9039 9.79922C95.2319 9.79922 94.7039 9.27122 94.7039 8.59922ZM85.1039 1.39922C85.1039 0.727219 85.6319 0.199219 86.3039 0.199219C86.9759 0.199219 87.5039 0.727219 87.5039 1.39922C87.5039 2.07122 86.9759 2.59922 86.3039 2.59922C85.6319 2.59922 85.1039 2.07122 85.1039 1.39922ZM94.7039 1.39922C94.7039 0.727219 95.2319 0.199219 95.9039 0.199219C96.5759 0.199219 97.1039 0.727219 97.1039 1.39922C97.1039 2.07122 96.5759 2.59922 95.9039 2.59922C95.2319 2.59922 94.7039 2.07122 94.7039 1.39922ZM94.7039 4.99922C94.7039 4.32722 95.2319 3.79922 95.9039 3.79922C96.5759 3.79922 97.1039 4.32722 97.1039 4.99922C97.1039 5.67122 96.5759 6.19922 95.9039 6.19922C95.2319 6.19922 94.7039 5.67122 94.7039 4.99922Z" fill="#F1F1F1"/>
</svg>
