<svg width="72" height="50" viewBox="0 0 72 50" fill="none" xmlns="http://www.w3.org/2000/svg">
<path d="M2.91797 7.00716C2.91797 5.27721 4.27721 3.91797 6.00716 3.91797C7.7371 3.91797 9.09635 5.27721 9.09635 7.00716C9.09635 5.27721 10.4556 3.91797 12.1855 3.91797C13.9155 3.91797 15.2747 5.27721 15.2747 7.00716C15.2747 5.27721 16.634 3.91797 18.3639 3.91797C20.0939 3.91797 21.4531 5.27721 21.4531 7.00716C21.4531 8.7371 20.0939 10.0963 18.3639 10.0963C16.634 10.0963 15.2747 8.7371 15.2747 7.00716C15.2747 8.7371 13.9155 10.0963 12.1855 10.0963C10.4556 10.0963 9.09635 8.7371 9.09635 7.00716C9.09635 8.7371 7.7371 10.0963 6.00716 10.0963C7.7371 10.0963 9.09635 11.4556 9.09635 13.1855C9.09635 14.9155 7.7371 16.2747 6.00716 16.2747C7.7371 16.2747 9.09635 17.634 9.09635 19.3639C9.09635 21.0939 7.7371 22.4531 6.00716 22.4531C7.7371 22.4531 9.09635 23.8124 9.09635 25.5423C9.09635 27.2722 7.7371 28.6315 6.00716 28.6315C7.7371 28.6315 9.09635 29.9907 9.09635 31.7207C9.09635 33.4506 7.7371 34.8099 6.00716 34.8099C7.7371 34.8099 9.09635 36.1691 9.09635 37.8991C9.09635 39.629 7.7371 40.9882 6.00716 40.9882C7.7371 40.9882 9.09635 42.3475 9.09635 44.0774C9.09635 42.3475 10.4556 40.9882 12.1855 40.9882C13.9155 40.9882 15.2747 42.3475 15.2747 44.0774C15.2747 42.3475 16.634 40.9882 18.3639 40.9882C20.0939 40.9882 21.4531 42.3475 21.4531 44.0774C21.4531 45.8074 20.0939 47.1666 18.3639 47.1666C16.634 47.1666 15.2747 45.8074 15.2747 44.0774C15.2747 45.8074 13.9155 47.1666 12.1855 47.1666C10.4556 47.1666 9.09635 45.8074 9.09635 44.0774C9.09635 45.8074 7.7371 47.1666 6.00716 47.1666C4.27721 47.1666 2.91797 45.8074 2.91797 44.0774C2.91797 42.3475 4.27721 40.9882 6.00716 40.9882C4.27721 40.9882 2.91797 39.629 2.91797 37.8991C2.91797 36.1691 4.27721 34.8099 6.00716 34.8099C4.27721 34.8099 2.91797 33.4506 2.91797 31.7207C2.91797 29.9907 4.27721 28.6315 6.00716 28.6315C4.27721 28.6315 2.91797 27.2722 2.91797 25.5423C2.91797 23.8124 4.27721 22.4531 6.00716 22.4531C4.27721 22.4531 2.91797 21.0939 2.91797 19.3639C2.91797 17.634 4.27721 16.2747 6.00716 16.2747C4.27721 16.2747 2.91797 14.9155 2.91797 13.1855C2.91797 11.4556 4.27721 10.0963 6.00716 10.0963C4.27721 10.0963 2.91797 8.7371 2.91797 7.00716Z" fill="#F1F1F1"/>
<path d="M69.0749 7.00716C69.0749 8.7371 67.7156 10.0963 65.9857 10.0963C67.7156 10.0963 69.0749 11.4556 69.0749 13.1855C69.0749 14.9155 67.7156 16.2747 65.9857 16.2747C67.7156 16.2747 69.0749 17.634 69.0749 19.3639C69.0749 21.0939 67.7156 22.4531 65.9857 22.4531C67.7156 22.4531 69.0749 23.8124 69.0749 25.5423C69.0749 27.2722 67.7156 28.6315 65.9857 28.6315C67.7156 28.6315 69.0749 29.9907 69.0749 31.7207C69.0749 33.4506 67.7156 34.8099 65.9857 34.8099C67.7156 34.8099 69.0749 36.1691 69.0749 37.8991C69.0749 39.629 67.7156 40.9882 65.9857 40.9882C67.7156 40.9882 69.0749 42.3475 69.0749 44.0774C69.0749 45.8074 67.7156 47.1666 65.9857 47.1666C64.2558 47.1666 62.8965 45.8074 62.8965 44.0774C62.8965 45.8074 61.5373 47.1666 59.8073 47.1666C58.0774 47.1666 56.7181 45.8074 56.7181 44.0774C56.7181 45.8074 55.3589 47.1666 53.6289 47.1666C51.899 47.1666 50.5398 45.8074 50.5398 44.0774C50.5398 42.3475 51.899 40.9882 53.6289 40.9882C55.3589 40.9882 56.7181 42.3475 56.7181 44.0774C56.7181 42.3475 58.0774 40.9882 59.8073 40.9882C61.5373 40.9882 62.8965 42.3475 62.8965 44.0774C62.8965 42.3475 64.2558 40.9882 65.9857 40.9882C64.2558 40.9882 62.8965 39.629 62.8965 37.8991C62.8965 36.1691 64.2558 34.8099 65.9857 34.8099C64.2558 34.8099 62.8965 33.4506 62.8965 31.7207C62.8965 29.9907 64.2558 28.6315 65.9857 28.6315C64.2558 28.6315 62.8965 27.2722 62.8965 25.5423C62.8965 23.8124 64.2558 22.4531 65.9857 22.4531C64.2558 22.4531 62.8965 21.0939 62.8965 19.3639C62.8965 17.634 64.2558 16.2747 65.9857 16.2747C64.2558 16.2747 62.8965 14.9155 62.8965 13.1855C62.8965 11.4556 64.2558 10.0963 65.9857 10.0963C64.2558 10.0963 62.8965 8.7371 62.8965 7.00716C62.8965 8.7371 61.5373 10.0963 59.8073 10.0963C58.0774 10.0963 56.7181 8.7371 56.7181 7.00716C56.7181 8.7371 55.3589 10.0963 53.6289 10.0963C51.899 10.0963 50.5398 8.7371 50.5398 7.00716C50.5398 5.27721 51.899 3.91797 53.6289 3.91797C55.3589 3.91797 56.7181 5.27721 56.7181 7.00716C56.7181 5.27721 58.0774 3.91797 59.8073 3.91797C61.5373 3.91797 62.8965 5.27721 62.8965 7.00716C62.8965 5.27721 64.2558 3.91797 65.9857 3.91797C67.7156 3.91797 69.0749 5.27721 69.0749 7.00716Z" fill="#F1F1F1"/>
<path d="M29.2612 19.7046C29.2612 17.9611 30.6312 16.5911 32.3747 16.5911C34.1183 16.5911 35.4882 17.9611 35.4882 19.7046C35.4882 21.4482 34.1183 22.8182 32.3747 22.8182C30.6312 22.8182 29.2612 21.4482 29.2612 19.7046Z" fill="#F1F1F1"/>
<path d="M29.2612 25.9321C29.2612 24.1885 30.6312 22.8182 32.3747 22.8182C34.1183 22.8182 35.4882 24.1885 35.4882 25.9321C35.4882 27.6756 34.1183 29.0456 32.3747 29.0456C30.6312 29.0456 29.2612 27.6756 29.2612 25.9321Z" fill="#F1F1F1"/>
<path d="M29.2612 32.1595C29.2612 30.4159 30.6312 29.0456 32.3747 29.0456C34.1183 29.0456 35.4882 30.4159 35.4882 32.1595C35.4882 33.903 34.1183 35.273 32.3747 35.273C30.6312 35.273 29.2612 33.903 29.2612 32.1595Z" fill="#F1F1F1"/>
<path d="M35.4867 29.1427C35.4867 27.3991 36.8567 26.0292 38.6002 26.0292C40.3438 26.0292 41.7137 27.3991 41.7137 29.1427C41.7137 30.8862 40.3438 32.2562 38.6002 32.2562C36.8567 32.2562 35.4867 30.8862 35.4867 29.1427Z" fill="#F1F1F1"/>
<path d="M41.7122 26.029C41.7122 24.2854 43.0822 22.9155 44.8257 22.9155C46.5693 22.9155 47.9393 24.2854 47.9393 26.029C47.9393 27.7725 46.5693 29.1425 44.8257 29.1425C43.0822 29.1425 41.7122 27.7725 41.7122 26.029Z" fill="#F1F1F1"/>
<path d="M35.4867 22.9153C35.4867 21.1717 36.8567 19.8018 38.6002 19.8018C40.3438 19.8018 41.7137 21.1717 41.7137 22.9153C41.7137 24.6588 40.3438 26.0292 38.6002 26.0292C36.8567 26.0292 35.4867 24.6588 35.4867 22.9153Z" fill="#F1F1F1"/>
</svg>
