<svg width="97" height="17" viewBox="0 0 97 17" fill="none" xmlns="http://www.w3.org/2000/svg">
<path d="M0 15.6C0 14.928 0.528 14.4 1.2 14.4C1.872 14.4 2.4 14.928 2.4 15.6C2.4 16.272 1.872 16.8 1.2 16.8C0.528 16.8 0 16.272 0 15.6ZM9.6 15.6C9.6 14.928 10.128 14.4 10.8 14.4C11.472 14.4 12 14.928 12 15.6C12 16.272 11.472 16.8 10.8 16.8C10.128 16.8 9.6 16.272 9.6 15.6ZM0 8.4C0 7.728 0.528 7.2 1.2 7.2C1.872 7.2 2.4 7.728 2.4 8.4C2.4 9.072 1.872 9.6 1.2 9.6C0.528 9.6 0 9.072 0 8.4ZM0 12C0 11.328 0.528 10.8 1.2 10.8C1.872 10.8 2.4 11.328 2.4 12C2.4 12.672 1.872 13.2 1.2 13.2C0.528 13.2 0 12.672 0 12ZM4.8 8.4C4.8 7.728 5.328 7.2 6 7.2C6.672 7.2 7.2 7.728 7.2 8.4C7.2 9.072 6.672 9.6 6 9.6C5.328 9.6 4.8 9.072 4.8 8.4ZM7.2 12C7.2 11.328 7.728 10.8 8.4 10.8C9.072 10.8 9.6 11.328 9.6 12C9.6 11.328 10.128 10.8 10.8 10.8C11.472 10.8 12 11.328 12 12C12 12.672 11.472 13.2 10.8 13.2C10.128 13.2 9.6 12.672 9.6 12C9.6 12.672 9.072 13.2 8.4 13.2C7.728 13.2 7.2 12.672 7.2 12ZM0 1.2C0 0.528 0.528 0 1.2 0C1.872 0 2.4 0.528 2.4 1.2C2.4 1.872 1.872 2.4 1.2 2.4C0.528 2.4 0 1.872 0 1.2ZM2.4 4.8C2.4 5.472 1.872 6 1.2 6C0.528 6 0 5.472 0 4.8C0 4.128 0.528 3.6 1.2 3.6C1.872 3.6 2.4 4.128 2.4 4.8C2.4 4.128 2.928 3.6 3.6 3.6C4.272 3.6 4.8 4.128 4.8 4.8C4.8 5.472 4.272 6 3.6 6C2.928 6 2.4 5.472 2.4 4.8ZM9.6 1.2C9.6 0.528 10.128 0 10.8 0C11.472 0 12 0.528 12 1.2C12 1.872 11.472 2.4 10.8 2.4C10.128 2.4 9.6 1.872 9.6 1.2ZM9.6 4.8C9.6 4.128 10.128 3.6 10.8 3.6C11.472 3.6 12 4.128 12 4.8C12 5.472 11.472 6 10.8 6C10.128 6 9.6 5.472 9.6 4.8ZM9.6 8.4C9.6 7.728 10.128 7.2 10.8 7.2C11.472 7.2 12 7.728 12 8.4C12 9.072 11.472 9.6 10.8 9.6C10.128 9.6 9.6 9.072 9.6 8.4Z" fill="#F1F1F1"/>
<path d="M14.1506 12C14.1506 11.328 14.6786 10.8 15.3506 10.8C16.0226 10.8 16.5506 11.328 16.5506 12C16.5506 12.672 16.0226 13.2 15.3506 13.2C14.6786 13.2 14.1506 12.672 14.1506 12ZM21.3506 15.6C21.3506 16.272 20.8226 16.8 20.1506 16.8C19.4786 16.8 18.9506 16.272 18.9506 15.6C18.9506 16.272 18.4226 16.8 17.7506 16.8C17.0786 16.8 16.5506 16.272 16.5506 15.6C16.5506 16.272 16.0226 16.8 15.3506 16.8C14.6786 16.8 14.1506 16.272 14.1506 15.6C14.1506 14.928 14.6786 14.4 15.3506 14.4C16.0226 14.4 16.5506 14.928 16.5506 15.6C16.5506 14.928 17.0786 14.4 17.7506 14.4C18.4226 14.4 18.9506 14.928 18.9506 15.6C18.9506 14.928 19.4786 14.4 20.1506 14.4C20.8226 14.4 21.3506 14.928 21.3506 15.6C21.3506 14.928 21.8786 14.4 22.5506 14.4C23.2226 14.4 23.7506 14.928 23.7506 15.6C23.7506 14.928 24.2786 14.4 24.9506 14.4C25.6226 14.4 26.1506 14.928 26.1506 15.6C26.1506 16.272 25.6226 16.8 24.9506 16.8C24.2786 16.8 23.7506 16.272 23.7506 15.6C23.7506 16.272 23.2226 16.8 22.5506 16.8C21.8786 16.8 21.3506 16.272 21.3506 15.6ZM14.1506 4.8C14.1506 4.128 14.6786 3.6 15.3506 3.6C16.0226 3.6 16.5506 4.128 16.5506 4.8C16.5506 5.472 16.0226 6 15.3506 6C14.6786 6 14.1506 5.472 14.1506 4.8ZM18.9506 8.4C18.9506 9.072 18.4226 9.6 17.7506 9.6C17.0786 9.6 16.5506 9.072 16.5506 8.4C16.5506 9.072 16.0226 9.6 15.3506 9.6C14.6786 9.6 14.1506 9.072 14.1506 8.4C14.1506 7.728 14.6786 7.2 15.3506 7.2C16.0226 7.2 16.5506 7.728 16.5506 8.4C16.5506 7.728 17.0786 7.2 17.7506 7.2C18.4226 7.2 18.9506 7.728 18.9506 8.4C18.9506 7.728 19.4786 7.2 20.1506 7.2C20.8226 7.2 21.3506 7.728 21.3506 8.4C21.3506 7.728 21.8786 7.2 22.5506 7.2C23.2226 7.2 23.7506 7.728 23.7506 8.4C23.7506 9.072 23.2226 9.6 22.5506 9.6C21.8786 9.6 21.3506 9.072 21.3506 8.4C21.3506 9.072 20.8226 9.6 20.1506 9.6C19.4786 9.6 18.9506 9.072 18.9506 8.4ZM21.3506 1.2C21.3506 1.872 20.8226 2.4 20.1506 2.4C19.4786 2.4 18.9506 1.872 18.9506 1.2C18.9506 1.872 18.4226 2.4 17.7506 2.4C17.0786 2.4 16.5506 1.872 16.5506 1.2C16.5506 1.872 16.0226 2.4 15.3506 2.4C14.6786 2.4 14.1506 1.872 14.1506 1.2C14.1506 0.528 14.6786 0 15.3506 0C16.0226 0 16.5506 0.528 16.5506 1.2C16.5506 0.528 17.0786 0 17.7506 0C18.4226 0 18.9506 0.528 18.9506 1.2C18.9506 0.528 19.4786 0 20.1506 0C20.8226 0 21.3506 0.528 21.3506 1.2C21.3506 0.528 21.8786 0 22.5506 0C23.2226 0 23.7506 0.528 23.7506 1.2C23.7506 0.528 24.2786 0 24.9506 0C25.6226 0 26.1506 0.528 26.1506 1.2C26.1506 1.872 25.6226 2.4 24.9506 2.4C24.2786 2.4 23.7506 1.872 23.7506 1.2C23.7506 1.872 23.2226 2.4 22.5506 2.4C21.8786 2.4 21.3506 1.872 21.3506 1.2Z" fill="#F1F1F1"/>
<path d="M35.5013 15.6C35.5013 16.272 34.9733 16.8 34.3013 16.8C33.6292 16.8 33.1012 16.272 33.1012 15.6C33.1012 16.272 32.5732 16.8 31.9013 16.8C31.2293 16.8 30.7013 16.272 30.7013 15.6C30.7013 14.928 31.2293 14.4 31.9013 14.4C32.5732 14.4 33.1012 14.928 33.1012 15.6C33.1012 14.928 33.6292 14.4 34.3013 14.4C34.9733 14.4 35.5013 14.928 35.5013 15.6C35.5013 14.928 36.0293 14.4 36.7013 14.4C37.3733 14.4 37.9013 14.928 37.9013 15.6C37.9013 16.272 37.3733 16.8 36.7013 16.8C36.0293 16.8 35.5013 16.272 35.5013 15.6ZM28.3013 8.4C28.3013 7.728 28.8293 7.2 29.5013 7.2C30.1733 7.2 30.7013 7.728 30.7013 8.4C30.7013 9.072 30.1733 9.6 29.5013 9.6C28.8293 9.6 28.3013 9.072 28.3013 8.4ZM28.3013 12C28.3013 11.328 28.8293 10.8 29.5013 10.8C30.1733 10.8 30.7013 11.328 30.7013 12C30.7013 12.672 30.1733 13.2 29.5013 13.2C28.8293 13.2 28.3013 12.672 28.3013 12ZM37.9013 12C37.9013 11.328 38.4292 10.8 39.1012 10.8C39.7733 10.8 40.3013 11.328 40.3013 12C40.3013 12.672 39.7733 13.2 39.1012 13.2C38.4292 13.2 37.9013 12.672 37.9013 12ZM28.3013 4.8C28.3013 4.128 28.8293 3.6 29.5013 3.6C30.1733 3.6 30.7013 4.128 30.7013 4.8C30.7013 5.472 30.1733 6 29.5013 6C28.8293 6 28.3013 5.472 28.3013 4.8ZM37.9013 8.4C37.9013 7.728 38.4292 7.2 39.1012 7.2C39.7733 7.2 40.3013 7.728 40.3013 8.4C40.3013 9.072 39.7733 9.6 39.1012 9.6C38.4292 9.6 37.9013 9.072 37.9013 8.4ZM35.5013 1.2C35.5013 1.872 34.9733 2.4 34.3013 2.4C33.6292 2.4 33.1012 1.872 33.1012 1.2C33.1012 1.872 32.5732 2.4 31.9013 2.4C31.2293 2.4 30.7013 1.872 30.7013 1.2C30.7013 0.528 31.2293 0 31.9013 0C32.5732 0 33.1012 0.528 33.1012 1.2C33.1012 0.528 33.6292 0 34.3013 0C34.9733 0 35.5013 0.528 35.5013 1.2C35.5013 0.528 36.0293 0 36.7013 0C37.3733 0 37.9013 0.528 37.9013 1.2C37.9013 1.872 37.3733 2.4 36.7013 2.4C36.0293 2.4 35.5013 1.872 35.5013 1.2ZM37.9013 4.8C37.9013 4.128 38.4292 3.6 39.1012 3.6C39.7733 3.6 40.3013 4.128 40.3013 4.8C40.3013 5.472 39.7733 6 39.1012 6C38.4292 6 37.9013 5.472 37.9013 4.8Z" fill="#F1F1F1"/>
<path d="M47.2519 15.6C47.2519 14.928 47.7799 14.4 48.4519 14.4C49.1239 14.4 49.6519 14.928 49.6519 15.6C49.6519 16.272 49.1239 16.8 48.4519 16.8C47.7799 16.8 47.2519 16.272 47.2519 15.6ZM47.2519 12C47.2519 11.328 47.7799 10.8 48.4519 10.8C49.1239 10.8 49.6519 11.328 49.6519 12C49.6519 12.672 49.1239 13.2 48.4519 13.2C47.7799 13.2 47.2519 12.672 47.2519 12ZM47.2519 4.8C47.2519 4.128 47.7799 3.6 48.4519 3.6C49.1239 3.6 49.6519 4.128 49.6519 4.8C49.6519 5.472 49.1239 6 48.4519 6C47.7799 6 47.2519 5.472 47.2519 4.8ZM47.2519 8.4C47.2519 7.728 47.7799 7.2 48.4519 7.2C49.1239 7.2 49.6519 7.728 49.6519 8.4C49.6519 9.072 49.1239 9.6 48.4519 9.6C47.7799 9.6 47.2519 9.072 47.2519 8.4ZM49.6519 1.2C49.6519 1.872 49.1239 2.4 48.4519 2.4C47.7799 2.4 47.2519 1.872 47.2519 1.2C47.2519 1.872 46.7239 2.4 46.0519 2.4C45.3799 2.4 44.8519 1.872 44.8519 1.2C44.8519 1.872 44.3239 2.4 43.6519 2.4C42.9799 2.4 42.4519 1.872 42.4519 1.2C42.4519 0.528 42.9799 0 43.6519 0C44.3239 0 44.8519 0.528 44.8519 1.2C44.8519 0.528 45.3799 0 46.0519 0C46.7239 0 47.2519 0.528 47.2519 1.2C47.2519 0.528 47.7799 0 48.4519 0C49.1239 0 49.6519 0.528 49.6519 1.2C49.6519 0.528 50.1799 0 50.8519 0C51.5239 0 52.0519 0.528 52.0519 1.2C52.0519 0.528 52.5799 0 53.2519 0C53.9239 0 54.4519 0.528 54.4519 1.2C54.4519 1.872 53.9239 2.4 53.2519 2.4C52.5799 2.4 52.0519 1.872 52.0519 1.2C52.0519 1.872 51.5239 2.4 50.8519 2.4C50.1799 2.4 49.6519 1.872 49.6519 1.2Z" fill="#F1F1F1"/>
<path d="M56.6025 12C56.6025 11.328 57.1305 10.8 57.8025 10.8C58.4745 10.8 59.0025 11.328 59.0025 12C59.0025 12.672 58.4745 13.2 57.8025 13.2C57.1305 13.2 56.6025 12.672 56.6025 12ZM63.8025 15.6C63.8025 16.272 63.2745 16.8 62.6025 16.8C61.9305 16.8 61.4025 16.272 61.4025 15.6C61.4025 16.272 60.8745 16.8 60.2025 16.8C59.5305 16.8 59.0025 16.272 59.0025 15.6C59.0025 16.272 58.4745 16.8 57.8025 16.8C57.1305 16.8 56.6025 16.272 56.6025 15.6C56.6025 14.928 57.1305 14.4 57.8025 14.4C58.4745 14.4 59.0025 14.928 59.0025 15.6C59.0025 14.928 59.5305 14.4 60.2025 14.4C60.8745 14.4 61.4025 14.928 61.4025 15.6C61.4025 14.928 61.9305 14.4 62.6025 14.4C63.2745 14.4 63.8025 14.928 63.8025 15.6C63.8025 14.928 64.3305 14.4 65.0025 14.4C65.6745 14.4 66.2025 14.928 66.2025 15.6C66.2025 14.928 66.7305 14.4 67.4025 14.4C68.0745 14.4 68.6025 14.928 68.6025 15.6C68.6025 16.272 68.0745 16.8 67.4025 16.8C66.7305 16.8 66.2025 16.272 66.2025 15.6C66.2025 16.272 65.6745 16.8 65.0025 16.8C64.3305 16.8 63.8025 16.272 63.8025 15.6ZM56.6025 4.8C56.6025 4.128 57.1305 3.6 57.8025 3.6C58.4745 3.6 59.0025 4.128 59.0025 4.8C59.0025 5.472 58.4745 6 57.8025 6C57.1305 6 56.6025 5.472 56.6025 4.8ZM61.4025 8.4C61.4025 9.072 60.8745 9.6 60.2025 9.6C59.5305 9.6 59.0025 9.072 59.0025 8.4C59.0025 9.072 58.4745 9.6 57.8025 9.6C57.1305 9.6 56.6025 9.072 56.6025 8.4C56.6025 7.728 57.1305 7.2 57.8025 7.2C58.4745 7.2 59.0025 7.728 59.0025 8.4C59.0025 7.728 59.5305 7.2 60.2025 7.2C60.8745 7.2 61.4025 7.728 61.4025 8.4C61.4025 7.728 61.9305 7.2 62.6025 7.2C63.2745 7.2 63.8025 7.728 63.8025 8.4C63.8025 7.728 64.3305 7.2 65.0025 7.2C65.6745 7.2 66.2025 7.728 66.2025 8.4C66.2025 9.072 65.6745 9.6 65.0025 9.6C64.3305 9.6 63.8025 9.072 63.8025 8.4C63.8025 9.072 63.2745 9.6 62.6025 9.6C61.9305 9.6 61.4025 9.072 61.4025 8.4ZM63.8025 1.2C63.8025 1.872 63.2745 2.4 62.6025 2.4C61.9305 2.4 61.4025 1.872 61.4025 1.2C61.4025 1.872 60.8745 2.4 60.2025 2.4C59.5305 2.4 59.0025 1.872 59.0025 1.2C59.0025 1.872 58.4745 2.4 57.8025 2.4C57.1305 2.4 56.6025 1.872 56.6025 1.2C56.6025 0.528 57.1305 0 57.8025 0C58.4745 0 59.0025 0.528 59.0025 1.2C59.0025 0.528 59.5305 0 60.2025 0C60.8745 0 61.4025 0.528 61.4025 1.2C61.4025 0.528 61.9305 0 62.6025 0C63.2745 0 63.8025 0.528 63.8025 1.2C63.8025 0.528 64.3305 0 65.0025 0C65.6745 0 66.2025 0.528 66.2025 1.2C66.2025 0.528 66.7305 0 67.4025 0C68.0745 0 68.6025 0.528 68.6025 1.2C68.6025 1.872 68.0745 2.4 67.4025 2.4C66.7305 2.4 66.2025 1.872 66.2025 1.2C66.2025 1.872 65.6745 2.4 65.0025 2.4C64.3305 2.4 63.8025 1.872 63.8025 1.2Z" fill="#F1F1F1"/>
<path d="M77.9531 15.6C77.9531 16.272 77.4251 16.8 76.7531 16.8C76.0811 16.8 75.5531 16.272 75.5531 15.6C75.5531 16.272 75.0251 16.8 74.3531 16.8C73.6811 16.8 73.1531 16.272 73.1531 15.6C73.1531 14.928 73.6811 14.4 74.3531 14.4C75.0251 14.4 75.5531 14.928 75.5531 15.6C75.5531 14.928 76.0811 14.4 76.7531 14.4C77.4251 14.4 77.9531 14.928 77.9531 15.6C77.9531 14.928 78.4811 14.4 79.1531 14.4C79.8251 14.4 80.3531 14.928 80.3531 15.6C80.3531 16.272 79.8251 16.8 79.1531 16.8C78.4811 16.8 77.9531 16.272 77.9531 15.6ZM70.7531 8.4C70.7531 7.728 71.2811 7.2 71.9531 7.2C72.6251 7.2 73.1531 7.728 73.1531 8.4C73.1531 9.072 72.6251 9.6 71.9531 9.6C71.2811 9.6 70.7531 9.072 70.7531 8.4ZM70.7531 12C70.7531 11.328 71.2811 10.8 71.9531 10.8C72.6251 10.8 73.1531 11.328 73.1531 12C73.1531 12.672 72.6251 13.2 71.9531 13.2C71.2811 13.2 70.7531 12.672 70.7531 12ZM80.3531 12C80.3531 11.328 80.8811 10.8 81.5531 10.8C82.2251 10.8 82.7531 11.328 82.7531 12C82.7531 12.672 82.2251 13.2 81.5531 13.2C80.8811 13.2 80.3531 12.672 80.3531 12ZM70.7531 4.8C70.7531 4.128 71.2811 3.6 71.9531 3.6C72.6251 3.6 73.1531 4.128 73.1531 4.8C73.1531 5.472 72.6251 6 71.9531 6C71.2811 6 70.7531 5.472 70.7531 4.8ZM77.9531 1.2C77.9531 1.872 77.4251 2.4 76.7531 2.4C76.0811 2.4 75.5531 1.872 75.5531 1.2C75.5531 1.872 75.0251 2.4 74.3531 2.4C73.6811 2.4 73.1531 1.872 73.1531 1.2C73.1531 0.528 73.6811 0 74.3531 0C75.0251 0 75.5531 0.528 75.5531 1.2C75.5531 0.528 76.0811 0 76.7531 0C77.4251 0 77.9531 0.528 77.9531 1.2C77.9531 0.528 78.4811 0 79.1531 0C79.8251 0 80.3531 0.528 80.3531 1.2C80.3531 1.872 79.8251 2.4 79.1531 2.4C78.4811 2.4 77.9531 1.872 77.9531 1.2ZM80.3531 4.8C80.3531 4.128 80.8811 3.6 81.5531 3.6C82.2251 3.6 82.7531 4.128 82.7531 4.8C82.7531 5.472 82.2251 6 81.5531 6C80.8811 6 80.3531 5.472 80.3531 4.8Z" fill="#F1F1F1"/>
<path d="M84.9037 15.6C84.9037 14.928 85.4317 14.4 86.1037 14.4C86.7757 14.4 87.3037 14.928 87.3037 15.6C87.3037 16.272 86.7757 16.8 86.1037 16.8C85.4317 16.8 84.9037 16.272 84.9037 15.6ZM84.9037 12C84.9037 11.328 85.4317 10.8 86.1037 10.8C86.7757 10.8 87.3037 11.328 87.3037 12C87.3037 12.672 86.7757 13.2 86.1037 13.2C85.4317 13.2 84.9037 12.672 84.9037 12ZM94.5037 12C94.5037 11.328 95.0318 10.8 95.7038 10.8C96.3757 10.8 96.9037 11.328 96.9037 12C96.9037 12.672 96.3757 13.2 95.7038 13.2C95.0318 13.2 94.5037 12.672 94.5037 12ZM94.5037 15.6C94.5037 14.928 95.0318 14.4 95.7038 14.4C96.3757 14.4 96.9037 14.928 96.9037 15.6C96.9037 16.272 96.3757 16.8 95.7038 16.8C95.0318 16.8 94.5037 16.272 94.5037 15.6ZM84.9037 4.8C84.9037 4.128 85.4317 3.6 86.1037 3.6C86.7757 3.6 87.3037 4.128 87.3037 4.8C87.3037 5.472 86.7757 6 86.1037 6C85.4317 6 84.9037 5.472 84.9037 4.8ZM94.5037 8.4C94.5037 9.072 93.9757 9.6 93.3037 9.6C92.6318 9.6 92.1037 9.072 92.1037 8.4C92.1037 9.072 91.5757 9.6 90.9037 9.6C90.2318 9.6 89.7038 9.072 89.7038 8.4C89.7038 9.072 89.1757 9.6 88.5037 9.6C87.8317 9.6 87.3037 9.072 87.3037 8.4C87.3037 9.072 86.7757 9.6 86.1037 9.6C85.4317 9.6 84.9037 9.072 84.9037 8.4C84.9037 7.728 85.4317 7.2 86.1037 7.2C86.7757 7.2 87.3037 7.728 87.3037 8.4C87.3037 7.728 87.8317 7.2 88.5037 7.2C89.1757 7.2 89.7038 7.728 89.7038 8.4C89.7038 7.728 90.2318 7.2 90.9037 7.2C91.5757 7.2 92.1037 7.728 92.1037 8.4C92.1037 7.728 92.6318 7.2 93.3037 7.2C93.9757 7.2 94.5037 7.728 94.5037 8.4C94.5037 7.728 95.0318 7.2 95.7038 7.2C96.3757 7.2 96.9037 7.728 96.9037 8.4C96.9037 9.072 96.3757 9.6 95.7038 9.6C95.0318 9.6 94.5037 9.072 94.5037 8.4ZM84.9037 1.2C84.9037 0.528 85.4317 0 86.1037 0C86.7757 0 87.3037 0.528 87.3037 1.2C87.3037 1.872 86.7757 2.4 86.1037 2.4C85.4317 2.4 84.9037 1.872 84.9037 1.2ZM94.5037 1.2C94.5037 0.528 95.0318 0 95.7038 0C96.3757 0 96.9037 0.528 96.9037 1.2C96.9037 1.872 96.3757 2.4 95.7038 2.4C95.0318 2.4 94.5037 1.872 94.5037 1.2ZM94.5037 4.8C94.5037 4.128 95.0318 3.6 95.7038 3.6C96.3757 3.6 96.9037 4.128 96.9037 4.8C96.9037 5.472 96.3757 6 95.7038 6C95.0318 6 94.5037 5.472 94.5037 4.8Z" fill="#F1F1F1"/>
</svg>
