<svg width="245" height="135" viewBox="0 0 245 135" fill="none" xmlns="http://www.w3.org/2000/svg">
<g filter="url(#filter0_f_23593_2575)">
<rect x="26.0283" y="26.0273" width="136.626" height="89.4097" fill="#A3A3A3"/>
</g>
<path d="M24.0283 30.7581C24.0283 27.1858 26.8352 24.3789 30.4076 24.3789C33.9799 24.3789 36.7868 27.1858 36.7868 30.7581C36.7868 27.1858 39.5936 24.3789 43.166 24.3789C46.7384 24.3789 49.5452 27.1858 49.5452 30.7581C49.5452 27.1858 52.3521 24.3789 55.9245 24.3789C59.4969 24.3789 62.3037 27.1858 62.3037 30.7581C62.3037 34.3305 59.4969 37.1374 55.9245 37.1374C52.3521 37.1374 49.5452 34.3305 49.5452 30.7581C49.5452 34.3305 46.7384 37.1374 43.166 37.1374C39.5936 37.1374 36.7868 34.3305 36.7868 30.7581C36.7868 34.3305 33.9799 37.1374 30.4076 37.1374C33.9799 37.1374 36.7868 39.9442 36.7868 43.5166C36.7868 47.089 33.9799 49.8958 30.4076 49.8958C33.9799 49.8958 36.7868 52.7027 36.7868 56.2751C36.7868 59.8474 33.9799 62.6543 30.4076 62.6543C33.9799 62.6543 36.7868 65.4612 36.7868 69.0335C36.7868 72.6059 33.9799 75.4128 30.4076 75.4128C33.9799 75.4128 36.7868 78.2196 36.7868 81.792C36.7868 85.3644 33.9799 88.1712 30.4076 88.1712C33.9799 88.1712 36.7868 90.9781 36.7868 94.5505C36.7868 98.1228 33.9799 100.93 30.4076 100.93C33.9799 100.93 36.7868 103.737 36.7868 107.309C36.7868 103.737 39.5936 100.93 43.166 100.93C46.7384 100.93 49.5452 103.737 49.5452 107.309C49.5452 103.737 52.3521 100.93 55.9245 100.93C59.4969 100.93 62.3037 103.737 62.3037 107.309C62.3037 110.881 59.4969 113.688 55.9245 113.688C52.3521 113.688 49.5452 110.881 49.5452 107.309C49.5452 110.881 46.7384 113.688 43.166 113.688C39.5936 113.688 36.7868 110.881 36.7868 107.309C36.7868 110.881 33.9799 113.688 30.4076 113.688C26.8352 113.688 24.0283 110.881 24.0283 107.309C24.0283 103.737 26.8352 100.93 30.4076 100.93C26.8352 100.93 24.0283 98.1228 24.0283 94.5505C24.0283 90.9781 26.8352 88.1712 30.4076 88.1712C26.8352 88.1712 24.0283 85.3644 24.0283 81.792C24.0283 78.2196 26.8352 75.4128 30.4076 75.4128C26.8352 75.4128 24.0283 72.6059 24.0283 69.0335C24.0283 65.4612 26.8352 62.6543 30.4076 62.6543C26.8352 62.6543 24.0283 59.8474 24.0283 56.2751C24.0283 52.7027 26.8352 49.8958 30.4076 49.8958C26.8352 49.8958 24.0283 47.089 24.0283 43.5166C24.0283 39.9442 26.8352 37.1374 30.4076 37.1374C26.8352 37.1374 24.0283 34.3305 24.0283 30.7581Z" fill="#F1F1F1"/>
<path d="M160.644 30.7581C160.644 34.3305 157.837 37.1374 154.264 37.1374C157.837 37.1374 160.644 39.9442 160.644 43.5166C160.644 47.089 157.837 49.8958 154.264 49.8958C157.837 49.8958 160.644 52.7027 160.644 56.2751C160.644 59.8474 157.837 62.6543 154.264 62.6543C157.837 62.6543 160.644 65.4612 160.644 69.0335C160.644 72.6059 157.837 75.4128 154.264 75.4128C157.837 75.4128 160.644 78.2196 160.644 81.792C160.644 85.3644 157.837 88.1712 154.264 88.1712C157.837 88.1712 160.644 90.9781 160.644 94.5505C160.644 98.1228 157.837 100.93 154.264 100.93C157.837 100.93 160.644 103.737 160.644 107.309C160.644 110.881 157.837 113.688 154.264 113.688C150.692 113.688 147.885 110.881 147.885 107.309C147.885 110.881 145.078 113.688 141.506 113.688C137.934 113.688 135.127 110.881 135.127 107.309C135.127 110.881 132.32 113.688 128.747 113.688C125.175 113.688 122.368 110.881 122.368 107.309C122.368 103.737 125.175 100.93 128.747 100.93C132.32 100.93 135.127 103.737 135.127 107.309C135.127 103.737 137.934 100.93 141.506 100.93C145.078 100.93 147.885 103.737 147.885 107.309C147.885 103.737 150.692 100.93 154.264 100.93C150.692 100.93 147.885 98.1228 147.885 94.5505C147.885 90.9781 150.692 88.1712 154.264 88.1712C150.692 88.1712 147.885 85.3644 147.885 81.792C147.885 78.2196 150.692 75.4128 154.264 75.4128C150.692 75.4128 147.885 72.6059 147.885 69.0335C147.885 65.4612 150.692 62.6543 154.264 62.6543C150.692 62.6543 147.885 59.8474 147.885 56.2751C147.885 52.7027 150.692 49.8958 154.264 49.8958C150.692 49.8958 147.885 47.089 147.885 43.5166C147.885 39.9442 150.692 37.1374 154.264 37.1374C150.692 37.1374 147.885 34.3305 147.885 30.7581C147.885 34.3305 145.078 37.1374 141.506 37.1374C137.934 37.1374 135.127 34.3305 135.127 30.7581C135.127 34.3305 132.32 37.1374 128.747 37.1374C125.175 37.1374 122.368 34.3305 122.368 30.7581C122.368 27.1858 125.175 24.3789 128.747 24.3789C132.32 24.3789 135.127 27.1858 135.127 30.7581C135.127 27.1858 137.934 24.3789 141.506 24.3789C145.078 24.3789 147.885 27.1858 147.885 30.7581C147.885 27.1858 150.692 24.3789 154.264 24.3789C157.837 24.3789 160.644 27.1858 160.644 30.7581Z" fill="#F1F1F1"/>
<path d="M78.4276 56.9787C78.4276 53.3782 81.2566 50.5492 84.8571 50.5492C88.4576 50.5492 91.2865 53.3782 91.2865 56.9787C91.2865 60.5792 88.4576 63.4081 84.8571 63.4081C81.2566 63.4081 78.4276 60.5792 78.4276 56.9787Z" fill="#F1F1F1"/>
<path d="M78.4276 69.8384C78.4276 66.2379 81.2566 63.4081 84.8571 63.4081C88.4576 63.4081 91.2865 66.2379 91.2865 69.8384C91.2865 73.4389 88.4576 76.2679 84.8571 76.2679C81.2566 76.2679 78.4276 73.4389 78.4276 69.8384Z" fill="#F1F1F1"/>
<path d="M78.4276 82.6981C78.4276 79.0976 81.2566 76.2679 84.8571 76.2679C88.4576 76.2679 91.2865 79.0976 91.2865 82.6981C91.2865 86.2986 88.4576 89.1276 84.8571 89.1276C81.2566 89.1276 78.4276 86.2986 78.4276 82.6981Z" fill="#F1F1F1"/>
<path d="M91.2834 76.4684C91.2834 72.8679 94.1124 70.0389 97.7129 70.0389C101.313 70.0389 104.142 72.8679 104.142 76.4684C104.142 80.0689 101.313 82.8979 97.7129 82.8979C94.1124 82.8979 91.2834 80.0689 91.2834 76.4684Z" fill="#F1F1F1"/>
<path d="M104.139 70.0385C104.139 66.438 106.968 63.6091 110.569 63.6091C114.169 63.6091 116.998 66.438 116.998 70.0385C116.998 73.639 114.169 76.468 110.569 76.468C106.968 76.468 104.139 73.639 104.139 70.0385Z" fill="#F1F1F1"/>
<path d="M91.2834 63.6087C91.2834 60.0082 94.1124 57.1792 97.7129 57.1792C101.313 57.1792 104.142 60.0082 104.142 63.6087C104.142 67.2092 101.313 70.0389 97.7129 70.0389C94.1124 70.0389 91.2834 67.2092 91.2834 63.6087Z" fill="#F1F1F1"/>
<defs>
<filter id="filter0_f_23593_2575" x="-55.5455" y="-55.5464" width="299.774" height="252.558" filterUnits="userSpaceOnUse" color-interpolation-filters="sRGB">
<feFlood flood-opacity="0" result="BackgroundImageFix"/>
<feBlend mode="normal" in="SourceGraphic" in2="BackgroundImageFix" result="shape"/>
<feGaussianBlur stdDeviation="40.7869" result="effect1_foregroundBlur_23593_2575"/>
</filter>
</defs>
</svg>
