<svg width="73" height="14" viewBox="0 0 73 14" fill="none" xmlns="http://www.w3.org/2000/svg">
<path d="M0 12.5008C0 11.9968 0.396 11.6008 0.9 11.6008C1.404 11.6008 1.8 11.9968 1.8 12.5008C1.8 13.0048 1.404 13.4008 0.9 13.4008C0.396 13.4008 0 13.0048 0 12.5008ZM7.2 12.5008C7.2 11.9968 7.596 11.6008 8.1 11.6008C8.604 11.6008 9 11.9968 9 12.5008C9 13.0048 8.604 13.4008 8.1 13.4008C7.596 13.4008 7.2 13.0048 7.2 12.5008ZM0 7.10078C0 6.59678 0.396 6.20078 0.9 6.20078C1.404 6.20078 1.8 6.59678 1.8 7.10078C1.8 7.60478 1.404 8.00078 0.9 8.00078C0.396 8.00078 0 7.60478 0 7.10078ZM0 9.80078C0 9.29678 0.396 8.90078 0.9 8.90078C1.404 8.90078 1.8 9.29678 1.8 9.80078C1.8 10.3048 1.404 10.7008 0.9 10.7008C0.396 10.7008 0 10.3048 0 9.80078ZM3.6 7.10078C3.6 6.59678 3.996 6.20078 4.5 6.20078C5.004 6.20078 5.4 6.59678 5.4 7.10078C5.4 7.60478 5.004 8.00078 4.5 8.00078C3.996 8.00078 3.6 7.60478 3.6 7.10078ZM5.4 9.80078C5.4 9.29678 5.796 8.90078 6.3 8.90078C6.804 8.90078 7.2 9.29678 7.2 9.80078C7.2 9.29678 7.596 8.90078 8.1 8.90078C8.604 8.90078 9 9.29678 9 9.80078C9 10.3048 8.604 10.7008 8.1 10.7008C7.596 10.7008 7.2 10.3048 7.2 9.80078C7.2 10.3048 6.804 10.7008 6.3 10.7008C5.796 10.7008 5.4 10.3048 5.4 9.80078ZM0 1.70078C0 1.19678 0.396 0.800781 0.9 0.800781C1.404 0.800781 1.8 1.19678 1.8 1.70078C1.8 2.20478 1.404 2.60078 0.9 2.60078C0.396 2.60078 0 2.20478 0 1.70078ZM1.8 4.40078C1.8 4.90478 1.404 5.30078 0.9 5.30078C0.396 5.30078 0 4.90478 0 4.40078C0 3.89678 0.396 3.50078 0.9 3.50078C1.404 3.50078 1.8 3.89678 1.8 4.40078C1.8 3.89678 2.196 3.50078 2.7 3.50078C3.204 3.50078 3.6 3.89678 3.6 4.40078C3.6 4.90478 3.204 5.30078 2.7 5.30078C2.196 5.30078 1.8 4.90478 1.8 4.40078ZM7.2 1.70078C7.2 1.19678 7.596 0.800781 8.1 0.800781C8.604 0.800781 9 1.19678 9 1.70078C9 2.20478 8.604 2.60078 8.1 2.60078C7.596 2.60078 7.2 2.20478 7.2 1.70078ZM7.2 4.40078C7.2 3.89678 7.596 3.50078 8.1 3.50078C8.604 3.50078 9 3.89678 9 4.40078C9 4.90478 8.604 5.30078 8.1 5.30078C7.596 5.30078 7.2 4.90478 7.2 4.40078ZM7.2 7.10078C7.2 6.59678 7.596 6.20078 8.1 6.20078C8.604 6.20078 9 6.59678 9 7.10078C9 7.60478 8.604 8.00078 8.1 8.00078C7.596 8.00078 7.2 7.60478 7.2 7.10078Z" fill="#F1F1F1"/>
<path d="M10.613 9.80078C10.613 9.29678 11.009 8.90078 11.513 8.90078C12.017 8.90078 12.413 9.29678 12.413 9.80078C12.413 10.3048 12.017 10.7008 11.513 10.7008C11.009 10.7008 10.613 10.3048 10.613 9.80078ZM16.013 12.5008C16.013 13.0048 15.617 13.4008 15.113 13.4008C14.609 13.4008 14.213 13.0048 14.213 12.5008C14.213 13.0048 13.817 13.4008 13.313 13.4008C12.809 13.4008 12.413 13.0048 12.413 12.5008C12.413 13.0048 12.017 13.4008 11.513 13.4008C11.009 13.4008 10.613 13.0048 10.613 12.5008C10.613 11.9968 11.009 11.6008 11.513 11.6008C12.017 11.6008 12.413 11.9968 12.413 12.5008C12.413 11.9968 12.809 11.6008 13.313 11.6008C13.817 11.6008 14.213 11.9968 14.213 12.5008C14.213 11.9968 14.609 11.6008 15.113 11.6008C15.617 11.6008 16.013 11.9968 16.013 12.5008C16.013 11.9968 16.409 11.6008 16.913 11.6008C17.417 11.6008 17.813 11.9968 17.813 12.5008C17.813 11.9968 18.209 11.6008 18.713 11.6008C19.217 11.6008 19.613 11.9968 19.613 12.5008C19.613 13.0048 19.217 13.4008 18.713 13.4008C18.209 13.4008 17.813 13.0048 17.813 12.5008C17.813 13.0048 17.417 13.4008 16.913 13.4008C16.409 13.4008 16.013 13.0048 16.013 12.5008ZM10.613 4.40078C10.613 3.89678 11.009 3.50078 11.513 3.50078C12.017 3.50078 12.413 3.89678 12.413 4.40078C12.413 4.90478 12.017 5.30078 11.513 5.30078C11.009 5.30078 10.613 4.90478 10.613 4.40078ZM14.213 7.10078C14.213 7.60478 13.817 8.00078 13.313 8.00078C12.809 8.00078 12.413 7.60478 12.413 7.10078C12.413 7.60478 12.017 8.00078 11.513 8.00078C11.009 8.00078 10.613 7.60478 10.613 7.10078C10.613 6.59678 11.009 6.20078 11.513 6.20078C12.017 6.20078 12.413 6.59678 12.413 7.10078C12.413 6.59678 12.809 6.20078 13.313 6.20078C13.817 6.20078 14.213 6.59678 14.213 7.10078C14.213 6.59678 14.609 6.20078 15.113 6.20078C15.617 6.20078 16.013 6.59678 16.013 7.10078C16.013 6.59678 16.409 6.20078 16.913 6.20078C17.417 6.20078 17.813 6.59678 17.813 7.10078C17.813 7.60478 17.417 8.00078 16.913 8.00078C16.409 8.00078 16.013 7.60478 16.013 7.10078C16.013 7.60478 15.617 8.00078 15.113 8.00078C14.609 8.00078 14.213 7.60478 14.213 7.10078ZM16.013 1.70078C16.013 2.20478 15.617 2.60078 15.113 2.60078C14.609 2.60078 14.213 2.20478 14.213 1.70078C14.213 2.20478 13.817 2.60078 13.313 2.60078C12.809 2.60078 12.413 2.20478 12.413 1.70078C12.413 2.20478 12.017 2.60078 11.513 2.60078C11.009 2.60078 10.613 2.20478 10.613 1.70078C10.613 1.19678 11.009 0.800781 11.513 0.800781C12.017 0.800781 12.413 1.19678 12.413 1.70078C12.413 1.19678 12.809 0.800781 13.313 0.800781C13.817 0.800781 14.213 1.19678 14.213 1.70078C14.213 1.19678 14.609 0.800781 15.113 0.800781C15.617 0.800781 16.013 1.19678 16.013 1.70078C16.013 1.19678 16.409 0.800781 16.913 0.800781C17.417 0.800781 17.813 1.19678 17.813 1.70078C17.813 1.19678 18.209 0.800781 18.713 0.800781C19.217 0.800781 19.613 1.19678 19.613 1.70078C19.613 2.20478 19.217 2.60078 18.713 2.60078C18.209 2.60078 17.813 2.20478 17.813 1.70078C17.813 2.20478 17.417 2.60078 16.913 2.60078C16.409 2.60078 16.013 2.20478 16.013 1.70078Z" fill="#F1F1F1"/>
<path d="M26.6259 12.5008C26.6259 13.0048 26.2299 13.4008 25.7259 13.4008C25.2219 13.4008 24.8259 13.0048 24.8259 12.5008C24.8259 13.0048 24.4299 13.4008 23.9259 13.4008C23.4219 13.4008 23.0259 13.0048 23.0259 12.5008C23.0259 11.9968 23.4219 11.6008 23.9259 11.6008C24.4299 11.6008 24.8259 11.9968 24.8259 12.5008C24.8259 11.9968 25.2219 11.6008 25.7259 11.6008C26.2299 11.6008 26.6259 11.9968 26.6259 12.5008C26.6259 11.9968 27.0219 11.6008 27.5259 11.6008C28.0299 11.6008 28.4259 11.9968 28.4259 12.5008C28.4259 13.0048 28.0299 13.4008 27.5259 13.4008C27.0219 13.4008 26.6259 13.0048 26.6259 12.5008ZM21.2259 7.10078C21.2259 6.59678 21.6219 6.20078 22.1259 6.20078C22.6299 6.20078 23.0259 6.59678 23.0259 7.10078C23.0259 7.60478 22.6299 8.00078 22.1259 8.00078C21.6219 8.00078 21.2259 7.60478 21.2259 7.10078ZM21.2259 9.80078C21.2259 9.29678 21.6219 8.90078 22.1259 8.90078C22.6299 8.90078 23.0259 9.29678 23.0259 9.80078C23.0259 10.3048 22.6299 10.7008 22.1259 10.7008C21.6219 10.7008 21.2259 10.3048 21.2259 9.80078ZM28.4259 9.80078C28.4259 9.29678 28.8219 8.90078 29.3259 8.90078C29.8299 8.90078 30.2259 9.29678 30.2259 9.80078C30.2259 10.3048 29.8299 10.7008 29.3259 10.7008C28.8219 10.7008 28.4259 10.3048 28.4259 9.80078ZM21.2259 4.40078C21.2259 3.89678 21.6219 3.50078 22.1259 3.50078C22.6299 3.50078 23.0259 3.89678 23.0259 4.40078C23.0259 4.90478 22.6299 5.30078 22.1259 5.30078C21.6219 5.30078 21.2259 4.90478 21.2259 4.40078ZM28.4259 7.10078C28.4259 6.59678 28.8219 6.20078 29.3259 6.20078C29.8299 6.20078 30.2259 6.59678 30.2259 7.10078C30.2259 7.60478 29.8299 8.00078 29.3259 8.00078C28.8219 8.00078 28.4259 7.60478 28.4259 7.10078ZM26.6259 1.70078C26.6259 2.20478 26.2299 2.60078 25.7259 2.60078C25.2219 2.60078 24.8259 2.20478 24.8259 1.70078C24.8259 2.20478 24.4299 2.60078 23.9259 2.60078C23.4219 2.60078 23.0259 2.20478 23.0259 1.70078C23.0259 1.19678 23.4219 0.800781 23.9259 0.800781C24.4299 0.800781 24.8259 1.19678 24.8259 1.70078C24.8259 1.19678 25.2219 0.800781 25.7259 0.800781C26.2299 0.800781 26.6259 1.19678 26.6259 1.70078C26.6259 1.19678 27.0219 0.800781 27.5259 0.800781C28.0299 0.800781 28.4259 1.19678 28.4259 1.70078C28.4259 2.20478 28.0299 2.60078 27.5259 2.60078C27.0219 2.60078 26.6259 2.20478 26.6259 1.70078ZM28.4259 4.40078C28.4259 3.89678 28.8219 3.50078 29.3259 3.50078C29.8299 3.50078 30.2259 3.89678 30.2259 4.40078C30.2259 4.90478 29.8299 5.30078 29.3259 5.30078C28.8219 5.30078 28.4259 4.90478 28.4259 4.40078Z" fill="#F1F1F1"/>
<path d="M35.4389 12.5008C35.4389 11.9968 35.8349 11.6008 36.3389 11.6008C36.8429 11.6008 37.2389 11.9968 37.2389 12.5008C37.2389 13.0048 36.8429 13.4008 36.3389 13.4008C35.8349 13.4008 35.4389 13.0048 35.4389 12.5008ZM35.4389 9.80078C35.4389 9.29678 35.8349 8.90078 36.3389 8.90078C36.8429 8.90078 37.2389 9.29678 37.2389 9.80078C37.2389 10.3048 36.8429 10.7008 36.3389 10.7008C35.8349 10.7008 35.4389 10.3048 35.4389 9.80078ZM35.4389 4.40078C35.4389 3.89678 35.8349 3.50078 36.3389 3.50078C36.8429 3.50078 37.2389 3.89678 37.2389 4.40078C37.2389 4.90478 36.8429 5.30078 36.3389 5.30078C35.8349 5.30078 35.4389 4.90478 35.4389 4.40078ZM35.4389 7.10078C35.4389 6.59678 35.8349 6.20078 36.3389 6.20078C36.8429 6.20078 37.2389 6.59678 37.2389 7.10078C37.2389 7.60478 36.8429 8.00078 36.3389 8.00078C35.8349 8.00078 35.4389 7.60478 35.4389 7.10078ZM37.2389 1.70078C37.2389 2.20478 36.8429 2.60078 36.3389 2.60078C35.8349 2.60078 35.4389 2.20478 35.4389 1.70078C35.4389 2.20478 35.0429 2.60078 34.5389 2.60078C34.0349 2.60078 33.6389 2.20478 33.6389 1.70078C33.6389 2.20478 33.2429 2.60078 32.7389 2.60078C32.2349 2.60078 31.8389 2.20478 31.8389 1.70078C31.8389 1.19678 32.2349 0.800781 32.7389 0.800781C33.2429 0.800781 33.6389 1.19678 33.6389 1.70078C33.6389 1.19678 34.0349 0.800781 34.5389 0.800781C35.0429 0.800781 35.4389 1.19678 35.4389 1.70078C35.4389 1.19678 35.8349 0.800781 36.3389 0.800781C36.8429 0.800781 37.2389 1.19678 37.2389 1.70078C37.2389 1.19678 37.6349 0.800781 38.1389 0.800781C38.6429 0.800781 39.0389 1.19678 39.0389 1.70078C39.0389 1.19678 39.4349 0.800781 39.9389 0.800781C40.4429 0.800781 40.8389 1.19678 40.8389 1.70078C40.8389 2.20478 40.4429 2.60078 39.9389 2.60078C39.4349 2.60078 39.0389 2.20478 39.0389 1.70078C39.0389 2.20478 38.6429 2.60078 38.1389 2.60078C37.6349 2.60078 37.2389 2.20478 37.2389 1.70078Z" fill="#F1F1F1"/>
<path d="M42.4519 9.80078C42.4519 9.29678 42.8479 8.90078 43.3519 8.90078C43.8559 8.90078 44.2519 9.29678 44.2519 9.80078C44.2519 10.3048 43.8559 10.7008 43.3519 10.7008C42.8479 10.7008 42.4519 10.3048 42.4519 9.80078ZM47.8519 12.5008C47.8519 13.0048 47.4559 13.4008 46.9519 13.4008C46.4479 13.4008 46.0519 13.0048 46.0519 12.5008C46.0519 13.0048 45.6559 13.4008 45.1519 13.4008C44.6479 13.4008 44.2519 13.0048 44.2519 12.5008C44.2519 13.0048 43.8559 13.4008 43.3519 13.4008C42.8479 13.4008 42.4519 13.0048 42.4519 12.5008C42.4519 11.9968 42.8479 11.6008 43.3519 11.6008C43.8559 11.6008 44.2519 11.9968 44.2519 12.5008C44.2519 11.9968 44.6479 11.6008 45.1519 11.6008C45.6559 11.6008 46.0519 11.9968 46.0519 12.5008C46.0519 11.9968 46.4479 11.6008 46.9519 11.6008C47.4559 11.6008 47.8519 11.9968 47.8519 12.5008C47.8519 11.9968 48.2479 11.6008 48.7519 11.6008C49.2559 11.6008 49.6519 11.9968 49.6519 12.5008C49.6519 11.9968 50.0479 11.6008 50.5519 11.6008C51.0559 11.6008 51.4519 11.9968 51.4519 12.5008C51.4519 13.0048 51.0559 13.4008 50.5519 13.4008C50.0479 13.4008 49.6519 13.0048 49.6519 12.5008C49.6519 13.0048 49.2559 13.4008 48.7519 13.4008C48.2479 13.4008 47.8519 13.0048 47.8519 12.5008ZM42.4519 4.40078C42.4519 3.89678 42.8479 3.50078 43.3519 3.50078C43.8559 3.50078 44.2519 3.89678 44.2519 4.40078C44.2519 4.90478 43.8559 5.30078 43.3519 5.30078C42.8479 5.30078 42.4519 4.90478 42.4519 4.40078ZM46.0519 7.10078C46.0519 7.60478 45.6559 8.00078 45.1519 8.00078C44.6479 8.00078 44.2519 7.60478 44.2519 7.10078C44.2519 7.60478 43.8559 8.00078 43.3519 8.00078C42.8479 8.00078 42.4519 7.60478 42.4519 7.10078C42.4519 6.59678 42.8479 6.20078 43.3519 6.20078C43.8559 6.20078 44.2519 6.59678 44.2519 7.10078C44.2519 6.59678 44.6479 6.20078 45.1519 6.20078C45.6559 6.20078 46.0519 6.59678 46.0519 7.10078C46.0519 6.59678 46.4479 6.20078 46.9519 6.20078C47.4559 6.20078 47.8519 6.59678 47.8519 7.10078C47.8519 6.59678 48.2479 6.20078 48.7519 6.20078C49.2559 6.20078 49.6519 6.59678 49.6519 7.10078C49.6519 7.60478 49.2559 8.00078 48.7519 8.00078C48.2479 8.00078 47.8519 7.60478 47.8519 7.10078C47.8519 7.60478 47.4559 8.00078 46.9519 8.00078C46.4479 8.00078 46.0519 7.60478 46.0519 7.10078ZM47.8519 1.70078C47.8519 2.20478 47.4559 2.60078 46.9519 2.60078C46.4479 2.60078 46.0519 2.20478 46.0519 1.70078C46.0519 2.20478 45.6559 2.60078 45.1519 2.60078C44.6479 2.60078 44.2519 2.20478 44.2519 1.70078C44.2519 2.20478 43.8559 2.60078 43.3519 2.60078C42.8479 2.60078 42.4519 2.20478 42.4519 1.70078C42.4519 1.19678 42.8479 0.800781 43.3519 0.800781C43.8559 0.800781 44.2519 1.19678 44.2519 1.70078C44.2519 1.19678 44.6479 0.800781 45.1519 0.800781C45.6559 0.800781 46.0519 1.19678 46.0519 1.70078C46.0519 1.19678 46.4479 0.800781 46.9519 0.800781C47.4559 0.800781 47.8519 1.19678 47.8519 1.70078C47.8519 1.19678 48.2479 0.800781 48.7519 0.800781C49.2559 0.800781 49.6519 1.19678 49.6519 1.70078C49.6519 1.19678 50.0479 0.800781 50.5519 0.800781C51.0559 0.800781 51.4519 1.19678 51.4519 1.70078C51.4519 2.20478 51.0559 2.60078 50.5519 2.60078C50.0479 2.60078 49.6519 2.20478 49.6519 1.70078C49.6519 2.20478 49.2559 2.60078 48.7519 2.60078C48.2479 2.60078 47.8519 2.20478 47.8519 1.70078Z" fill="#F1F1F1"/>
<path d="M58.4648 12.5008C58.4648 13.0048 58.0688 13.4008 57.5648 13.4008C57.0608 13.4008 56.6648 13.0048 56.6648 12.5008C56.6648 13.0048 56.2688 13.4008 55.7648 13.4008C55.2608 13.4008 54.8648 13.0048 54.8648 12.5008C54.8648 11.9968 55.2608 11.6008 55.7648 11.6008C56.2688 11.6008 56.6648 11.9968 56.6648 12.5008C56.6648 11.9968 57.0608 11.6008 57.5648 11.6008C58.0688 11.6008 58.4648 11.9968 58.4648 12.5008C58.4648 11.9968 58.8608 11.6008 59.3648 11.6008C59.8688 11.6008 60.2648 11.9968 60.2648 12.5008C60.2648 13.0048 59.8688 13.4008 59.3648 13.4008C58.8608 13.4008 58.4648 13.0048 58.4648 12.5008ZM53.0648 7.10078C53.0648 6.59678 53.4608 6.20078 53.9648 6.20078C54.4688 6.20078 54.8648 6.59678 54.8648 7.10078C54.8648 7.60478 54.4688 8.00078 53.9648 8.00078C53.4608 8.00078 53.0648 7.60478 53.0648 7.10078ZM53.0648 9.80078C53.0648 9.29678 53.4608 8.90078 53.9648 8.90078C54.4688 8.90078 54.8648 9.29678 54.8648 9.80078C54.8648 10.3048 54.4688 10.7008 53.9648 10.7008C53.4608 10.7008 53.0648 10.3048 53.0648 9.80078ZM60.2648 9.80078C60.2648 9.29678 60.6608 8.90078 61.1648 8.90078C61.6688 8.90078 62.0648 9.29678 62.0648 9.80078C62.0648 10.3048 61.6688 10.7008 61.1648 10.7008C60.6608 10.7008 60.2648 10.3048 60.2648 9.80078ZM53.0648 4.40078C53.0648 3.89678 53.4608 3.50078 53.9648 3.50078C54.4688 3.50078 54.8648 3.89678 54.8648 4.40078C54.8648 4.90478 54.4688 5.30078 53.9648 5.30078C53.4608 5.30078 53.0648 4.90478 53.0648 4.40078ZM58.4648 1.70078C58.4648 2.20478 58.0688 2.60078 57.5648 2.60078C57.0608 2.60078 56.6648 2.20478 56.6648 1.70078C56.6648 2.20478 56.2688 2.60078 55.7648 2.60078C55.2608 2.60078 54.8648 2.20478 54.8648 1.70078C54.8648 1.19678 55.2608 0.800781 55.7648 0.800781C56.2688 0.800781 56.6648 1.19678 56.6648 1.70078C56.6648 1.19678 57.0608 0.800781 57.5648 0.800781C58.0688 0.800781 58.4648 1.19678 58.4648 1.70078C58.4648 1.19678 58.8608 0.800781 59.3648 0.800781C59.8688 0.800781 60.2648 1.19678 60.2648 1.70078C60.2648 2.20478 59.8688 2.60078 59.3648 2.60078C58.8608 2.60078 58.4648 2.20478 58.4648 1.70078ZM60.2648 4.40078C60.2648 3.89678 60.6608 3.50078 61.1648 3.50078C61.6688 3.50078 62.0648 3.89678 62.0648 4.40078C62.0648 4.90478 61.6688 5.30078 61.1648 5.30078C60.6608 5.30078 60.2648 4.90478 60.2648 4.40078Z" fill="#F1F1F1"/>
<path d="M63.6778 12.5008C63.6778 11.9968 64.0738 11.6008 64.5778 11.6008C65.0818 11.6008 65.4778 11.9968 65.4778 12.5008C65.4778 13.0048 65.0818 13.4008 64.5778 13.4008C64.0738 13.4008 63.6778 13.0048 63.6778 12.5008ZM63.6778 9.80078C63.6778 9.29678 64.0738 8.90078 64.5778 8.90078C65.0818 8.90078 65.4778 9.29678 65.4778 9.80078C65.4778 10.3048 65.0818 10.7008 64.5778 10.7008C64.0738 10.7008 63.6778 10.3048 63.6778 9.80078ZM70.8778 9.80078C70.8778 9.29678 71.2738 8.90078 71.7778 8.90078C72.2818 8.90078 72.6778 9.29678 72.6778 9.80078C72.6778 10.3048 72.2818 10.7008 71.7778 10.7008C71.2738 10.7008 70.8778 10.3048 70.8778 9.80078ZM70.8778 12.5008C70.8778 11.9968 71.2738 11.6008 71.7778 11.6008C72.2818 11.6008 72.6778 11.9968 72.6778 12.5008C72.6778 13.0048 72.2818 13.4008 71.7778 13.4008C71.2738 13.4008 70.8778 13.0048 70.8778 12.5008ZM63.6778 4.40078C63.6778 3.89678 64.0738 3.50078 64.5778 3.50078C65.0818 3.50078 65.4778 3.89678 65.4778 4.40078C65.4778 4.90478 65.0818 5.30078 64.5778 5.30078C64.0738 5.30078 63.6778 4.90478 63.6778 4.40078ZM70.8778 7.10078C70.8778 7.60478 70.4818 8.00078 69.9778 8.00078C69.4738 8.00078 69.0778 7.60478 69.0778 7.10078C69.0778 7.60478 68.6818 8.00078 68.1778 8.00078C67.6738 8.00078 67.2778 7.60478 67.2778 7.10078C67.2778 7.60478 66.8818 8.00078 66.3778 8.00078C65.8738 8.00078 65.4778 7.60478 65.4778 7.10078C65.4778 7.60478 65.0818 8.00078 64.5778 8.00078C64.0738 8.00078 63.6778 7.60478 63.6778 7.10078C63.6778 6.59678 64.0738 6.20078 64.5778 6.20078C65.0818 6.20078 65.4778 6.59678 65.4778 7.10078C65.4778 6.59678 65.8738 6.20078 66.3778 6.20078C66.8818 6.20078 67.2778 6.59678 67.2778 7.10078C67.2778 6.59678 67.6738 6.20078 68.1778 6.20078C68.6818 6.20078 69.0778 6.59678 69.0778 7.10078C69.0778 6.59678 69.4738 6.20078 69.9778 6.20078C70.4818 6.20078 70.8778 6.59678 70.8778 7.10078C70.8778 6.59678 71.2738 6.20078 71.7778 6.20078C72.2818 6.20078 72.6778 6.59678 72.6778 7.10078C72.6778 7.60478 72.2818 8.00078 71.7778 8.00078C71.2738 8.00078 70.8778 7.60478 70.8778 7.10078ZM63.6778 1.70078C63.6778 1.19678 64.0738 0.800781 64.5778 0.800781C65.0818 0.800781 65.4778 1.19678 65.4778 1.70078C65.4778 2.20478 65.0818 2.60078 64.5778 2.60078C64.0738 2.60078 63.6778 2.20478 63.6778 1.70078ZM70.8778 1.70078C70.8778 1.19678 71.2738 0.800781 71.7778 0.800781C72.2818 0.800781 72.6778 1.19678 72.6778 1.70078C72.6778 2.20478 72.2818 2.60078 71.7778 2.60078C71.2738 2.60078 70.8778 2.20478 70.8778 1.70078ZM70.8778 4.40078C70.8778 3.89678 71.2738 3.50078 71.7778 3.50078C72.2818 3.50078 72.6778 3.89678 72.6778 4.40078C72.6778 4.90478 72.2818 5.30078 71.7778 5.30078C71.2738 5.30078 70.8778 4.90478 70.8778 4.40078Z" fill="#F1F1F1"/>
</svg>
