<svg width="146" height="106" viewBox="0 0 146 106" fill="none" xmlns="http://www.w3.org/2000/svg">
<g filter="url(#filter0_f_23593_2591)">
<rect x="39.9187" y="22.918" width="66.1622" height="43.2973" fill="#A3A3A3"/>
</g>
<path d="M39.9187 27.0072C39.9187 25.2772 41.2779 23.918 43.0079 23.918C44.7378 23.918 46.0971 25.2772 46.0971 27.0072C46.0971 25.2772 47.4563 23.918 49.1863 23.918C50.9162 23.918 52.2755 25.2772 52.2755 27.0072C52.2755 25.2772 53.6347 23.918 55.3646 23.918C57.0946 23.918 58.4538 25.2772 58.4538 27.0072C58.4538 28.7371 57.0946 30.0963 55.3646 30.0963C53.6347 30.0963 52.2755 28.7371 52.2755 27.0072C52.2755 28.7371 50.9162 30.0963 49.1863 30.0963C47.4563 30.0963 46.0971 28.7371 46.0971 27.0072C46.0971 28.7371 44.7378 30.0963 43.0079 30.0963C44.7378 30.0963 46.0971 31.4556 46.0971 33.1855C46.0971 34.9155 44.7378 36.2747 43.0079 36.2747C44.7378 36.2747 46.0971 37.634 46.0971 39.3639C46.0971 41.0939 44.7378 42.4531 43.0079 42.4531C44.7378 42.4531 46.0971 43.8124 46.0971 45.5423C46.0971 47.2722 44.7378 48.6315 43.0079 48.6315C44.7378 48.6315 46.0971 49.9907 46.0971 51.7207C46.0971 53.4506 44.7378 54.8099 43.0079 54.8099C44.7378 54.8099 46.0971 56.1691 46.0971 57.8991C46.0971 59.629 44.7378 60.9882 43.0079 60.9882C44.7378 60.9882 46.0971 62.3475 46.0971 64.0774C46.0971 62.3475 47.4563 60.9882 49.1863 60.9882C50.9162 60.9882 52.2755 62.3475 52.2755 64.0774C52.2755 62.3475 53.6347 60.9882 55.3646 60.9882C57.0946 60.9882 58.4538 62.3475 58.4538 64.0774C58.4538 65.8074 57.0946 67.1666 55.3646 67.1666C53.6347 67.1666 52.2755 65.8074 52.2755 64.0774C52.2755 65.8074 50.9162 67.1666 49.1863 67.1666C47.4563 67.1666 46.0971 65.8074 46.0971 64.0774C46.0971 65.8074 44.7378 67.1666 43.0079 67.1666C41.2779 67.1666 39.9187 65.8074 39.9187 64.0774C39.9187 62.3475 41.2779 60.9882 43.0079 60.9882C41.2779 60.9882 39.9187 59.629 39.9187 57.8991C39.9187 56.1691 41.2779 54.8099 43.0079 54.8099C41.2779 54.8099 39.9187 53.4506 39.9187 51.7207C39.9187 49.9907 41.2779 48.6315 43.0079 48.6315C41.2779 48.6315 39.9187 47.2722 39.9187 45.5423C39.9187 43.8124 41.2779 42.4531 43.0079 42.4531C41.2779 42.4531 39.9187 41.0939 39.9187 39.3639C39.9187 37.634 41.2779 36.2747 43.0079 36.2747C41.2779 36.2747 39.9187 34.9155 39.9187 33.1855C39.9187 31.4556 41.2779 30.0963 43.0079 30.0963C41.2779 30.0963 39.9187 28.7371 39.9187 27.0072Z" fill="#F1F1F1"/>
<path d="M106.076 27.0072C106.076 28.7371 104.716 30.0963 102.986 30.0963C104.716 30.0963 106.076 31.4556 106.076 33.1855C106.076 34.9155 104.716 36.2747 102.986 36.2747C104.716 36.2747 106.076 37.634 106.076 39.3639C106.076 41.0939 104.716 42.4531 102.986 42.4531C104.716 42.4531 106.076 43.8124 106.076 45.5423C106.076 47.2722 104.716 48.6315 102.986 48.6315C104.716 48.6315 106.076 49.9907 106.076 51.7207C106.076 53.4506 104.716 54.8099 102.986 54.8099C104.716 54.8099 106.076 56.1691 106.076 57.8991C106.076 59.629 104.716 60.9882 102.986 60.9882C104.716 60.9882 106.076 62.3475 106.076 64.0774C106.076 65.8074 104.716 67.1666 102.986 67.1666C101.256 67.1666 99.8972 65.8074 99.8972 64.0774C99.8972 65.8074 98.538 67.1666 96.8081 67.1666C95.0781 67.1666 93.7189 65.8074 93.7189 64.0774C93.7189 65.8074 92.3596 67.1666 90.6297 67.1666C88.8997 67.1666 87.5405 65.8074 87.5405 64.0774C87.5405 62.3475 88.8997 60.9882 90.6297 60.9882C92.3596 60.9882 93.7189 62.3475 93.7189 64.0774C93.7189 62.3475 95.0781 60.9882 96.8081 60.9882C98.538 60.9882 99.8972 62.3475 99.8972 64.0774C99.8972 62.3475 101.256 60.9882 102.986 60.9882C101.256 60.9882 99.8972 59.629 99.8972 57.8991C99.8972 56.1691 101.256 54.8099 102.986 54.8099C101.256 54.8099 99.8972 53.4506 99.8972 51.7207C99.8972 49.9907 101.256 48.6315 102.986 48.6315C101.256 48.6315 99.8972 47.2722 99.8972 45.5423C99.8972 43.8124 101.256 42.4531 102.986 42.4531C101.256 42.4531 99.8972 41.0939 99.8972 39.3639C99.8972 37.634 101.256 36.2747 102.986 36.2747C101.256 36.2747 99.8972 34.9155 99.8972 33.1855C99.8972 31.4556 101.256 30.0963 102.986 30.0963C101.256 30.0963 99.8972 28.7371 99.8972 27.0072C99.8972 28.7371 98.538 30.0963 96.8081 30.0963C95.0781 30.0963 93.7189 28.7371 93.7189 27.0072C93.7189 28.7371 92.3596 30.0963 90.6297 30.0963C88.8997 30.0963 87.5405 28.7371 87.5405 27.0072C87.5405 25.2772 88.8997 23.918 90.6297 23.918C92.3596 23.918 93.7189 25.2772 93.7189 27.0072C93.7189 25.2772 95.0781 23.918 96.8081 23.918C98.538 23.918 99.8972 25.2772 99.8972 27.0072C99.8972 25.2772 101.256 23.918 102.986 23.918C104.716 23.918 106.076 25.2772 106.076 27.0072Z" fill="#F1F1F1"/>
<path d="M66.2619 39.7046C66.2619 37.9611 67.6319 36.5911 69.3755 36.5911C71.119 36.5911 72.489 37.9611 72.489 39.7046C72.489 41.4482 71.119 42.8182 69.3755 42.8182C67.6319 42.8182 66.2619 41.4482 66.2619 39.7046Z" fill="#F1F1F1"/>
<path d="M66.2619 45.9321C66.2619 44.1885 67.6319 42.8182 69.3755 42.8182C71.119 42.8182 72.489 44.1885 72.489 45.9321C72.489 47.6756 71.119 49.0456 69.3755 49.0456C67.6319 49.0456 66.2619 47.6756 66.2619 45.9321Z" fill="#F1F1F1"/>
<path d="M66.2619 52.1595C66.2619 50.4159 67.6319 49.0456 69.3755 49.0456C71.119 49.0456 72.489 50.4159 72.489 52.1595C72.489 53.903 71.119 55.273 69.3755 55.273C67.6319 55.273 66.2619 53.903 66.2619 52.1595Z" fill="#F1F1F1"/>
<path d="M72.4875 49.1427C72.4875 47.3991 73.8574 46.0292 75.601 46.0292C77.3445 46.0292 78.7145 47.3991 78.7145 49.1427C78.7145 50.8862 77.3445 52.2562 75.601 52.2562C73.8574 52.2562 72.4875 50.8862 72.4875 49.1427Z" fill="#F1F1F1"/>
<path d="M78.713 46.029C78.713 44.2854 80.0829 42.9155 81.8265 42.9155C83.57 42.9155 84.94 44.2854 84.94 46.029C84.94 47.7725 83.57 49.1425 81.8265 49.1425C80.0829 49.1425 78.713 47.7725 78.713 46.029Z" fill="#F1F1F1"/>
<path d="M72.4875 42.9153C72.4875 41.1717 73.8574 39.8018 75.601 39.8018C77.3445 39.8018 78.7145 41.1717 78.7145 42.9153C78.7145 44.6588 77.3445 46.0292 75.601 46.0292C73.8574 46.0292 72.4875 44.6588 72.4875 42.9153Z" fill="#F1F1F1"/>
<defs>
<filter id="filter0_f_23593_2591" x="0.416004" y="-16.5847" width="145.168" height="122.302" filterUnits="userSpaceOnUse" color-interpolation-filters="sRGB">
<feFlood flood-opacity="0" result="BackgroundImageFix"/>
<feBlend mode="normal" in="SourceGraphic" in2="BackgroundImageFix" result="shape"/>
<feGaussianBlur stdDeviation="19.7513" result="effect1_foregroundBlur_23593_2591"/>
</filter>
</defs>
</svg>
