<svg width="144" height="95" viewBox="0 0 144 95" fill="none" xmlns="http://www.w3.org/2000/svg">
<path d="M4 9.35C4 5.794 6.794 3 10.35 3C13.906 3 16.7 5.794 16.7 9.35C16.7 5.794 19.494 3 23.05 3C26.606 3 29.4 5.794 29.4 9.35C29.4 5.794 32.194 3 35.75 3C39.306 3 42.1 5.794 42.1 9.35C42.1 12.906 39.306 15.7 35.75 15.7C32.194 15.7 29.4 12.906 29.4 9.35C29.4 12.906 26.606 15.7 23.05 15.7C19.494 15.7 16.7 12.906 16.7 9.35C16.7 12.906 13.906 15.7 10.35 15.7C13.906 15.7 16.7 18.494 16.7 22.05C16.7 25.606 13.906 28.4 10.35 28.4C13.906 28.4 16.7 31.194 16.7 34.75C16.7 38.306 13.906 41.1 10.35 41.1C13.906 41.1 16.7 43.894 16.7 47.45C16.7 51.006 13.906 53.8 10.35 53.8C13.906 53.8 16.7 56.594 16.7 60.15C16.7 63.706 13.906 66.5 10.35 66.5C13.906 66.5 16.7 69.294 16.7 72.85C16.7 76.406 13.906 79.2 10.35 79.2C13.906 79.2 16.7 81.994 16.7 85.55C16.7 81.994 19.494 79.2 23.05 79.2C26.606 79.2 29.4 81.994 29.4 85.55C29.4 81.994 32.194 79.2 35.75 79.2C39.306 79.2 42.1 81.994 42.1 85.55C42.1 89.106 39.306 91.9 35.75 91.9C32.194 91.9 29.4 89.106 29.4 85.55C29.4 89.106 26.606 91.9 23.05 91.9C19.494 91.9 16.7 89.106 16.7 85.55C16.7 89.106 13.906 91.9 10.35 91.9C6.794 91.9 4 89.106 4 85.55C4 81.994 6.794 79.2 10.35 79.2C6.794 79.2 4 76.406 4 72.85C4 69.294 6.794 66.5 10.35 66.5C6.794 66.5 4 63.706 4 60.15C4 56.594 6.794 53.8 10.35 53.8C6.794 53.8 4 51.006 4 47.45C4 43.894 6.794 41.1 10.35 41.1C6.794 41.1 4 38.306 4 34.75C4 31.194 6.794 28.4 10.35 28.4C6.794 28.4 4 25.606 4 22.05C4 18.494 6.794 15.7 10.35 15.7C6.794 15.7 4 12.906 4 9.35Z" fill="#F1F1F1"/>
<path d="M139.989 9.35C139.989 12.906 137.195 15.7 133.639 15.7C137.195 15.7 139.989 18.494 139.989 22.05C139.989 25.606 137.195 28.4 133.639 28.4C137.195 28.4 139.989 31.194 139.989 34.75C139.989 38.306 137.195 41.1 133.639 41.1C137.195 41.1 139.989 43.894 139.989 47.45C139.989 51.006 137.195 53.8 133.639 53.8C137.195 53.8 139.989 56.594 139.989 60.15C139.989 63.706 137.195 66.5 133.639 66.5C137.195 66.5 139.989 69.294 139.989 72.85C139.989 76.406 137.195 79.2 133.639 79.2C137.195 79.2 139.989 81.994 139.989 85.55C139.989 89.106 137.195 91.9 133.639 91.9C130.083 91.9 127.289 89.106 127.289 85.55C127.289 89.106 124.495 91.9 120.939 91.9C117.383 91.9 114.589 89.106 114.589 85.55C114.589 89.106 111.795 91.9 108.239 91.9C104.683 91.9 101.889 89.106 101.889 85.55C101.889 81.994 104.683 79.2 108.239 79.2C111.795 79.2 114.589 81.994 114.589 85.55C114.589 81.994 117.383 79.2 120.939 79.2C124.495 79.2 127.289 81.994 127.289 85.55C127.289 81.994 130.083 79.2 133.639 79.2C130.083 79.2 127.289 76.406 127.289 72.85C127.289 69.294 130.083 66.5 133.639 66.5C130.083 66.5 127.289 63.706 127.289 60.15C127.289 56.594 130.083 53.8 133.639 53.8C130.083 53.8 127.289 51.006 127.289 47.45C127.289 43.894 130.083 41.1 133.639 41.1C130.083 41.1 127.289 38.306 127.289 34.75C127.289 31.194 130.083 28.4 133.639 28.4C130.083 28.4 127.289 25.606 127.289 22.05C127.289 18.494 130.083 15.7 133.639 15.7C130.083 15.7 127.289 12.906 127.289 9.35C127.289 12.906 124.495 15.7 120.939 15.7C117.383 15.7 114.589 12.906 114.589 9.35C114.589 12.906 111.795 15.7 108.239 15.7C104.683 15.7 101.889 12.906 101.889 9.35C101.889 5.794 104.683 3 108.239 3C111.795 3 114.589 5.794 114.589 9.35C114.589 5.794 117.383 3 120.939 3C124.495 3 127.289 5.794 127.289 9.35C127.289 5.794 130.083 3 133.639 3C137.195 3 139.989 5.794 139.989 9.35Z" fill="#F1F1F1"/>
<path d="M58.15 35.4504C58.15 31.8664 60.966 29.0504 64.55 29.0504C68.134 29.0504 70.95 31.8664 70.95 35.4504C70.95 39.0344 68.134 41.8504 64.55 41.8504C60.966 41.8504 58.15 39.0344 58.15 35.4504Z" fill="#F1F1F1"/>
<path d="M58.15 48.2512C58.15 44.6672 60.966 41.8504 64.55 41.8504C68.134 41.8504 70.95 44.6672 70.95 48.2512C70.95 51.8352 68.134 54.6512 64.55 54.6512C60.966 54.6512 58.15 51.8352 58.15 48.2512Z" fill="#F1F1F1"/>
<path d="M58.15 61.052C58.15 57.468 60.966 54.6512 64.55 54.6512C68.134 54.6512 70.95 57.468 70.95 61.052C70.95 64.636 68.134 67.452 64.55 67.452C60.966 67.452 58.15 64.636 58.15 61.052Z" fill="#F1F1F1"/>
<path d="M70.9469 54.8508C70.9469 51.2668 73.7629 48.4508 77.3469 48.4508C80.9309 48.4508 83.7469 51.2668 83.7469 54.8508C83.7469 58.4348 80.9309 61.2508 77.3469 61.2508C73.7629 61.2508 70.9469 58.4348 70.9469 54.8508Z" fill="#F1F1F1"/>
<path d="M83.7438 48.4504C83.7438 44.8664 86.5598 42.0504 90.1438 42.0504C93.7278 42.0504 96.5438 44.8664 96.5438 48.4504C96.5438 52.0344 93.7278 54.8504 90.1438 54.8504C86.5598 54.8504 83.7438 52.0344 83.7438 48.4504Z" fill="#F1F1F1"/>
<path d="M70.9469 42.05C70.9469 38.466 73.7629 35.65 77.3469 35.65C80.9309 35.65 83.7469 38.466 83.7469 42.05C83.7469 45.634 80.9309 48.4508 77.3469 48.4508C73.7629 48.4508 70.9469 45.634 70.9469 42.05Z" fill="#F1F1F1"/>
</svg>
