<svg width="23" height="21" viewBox="0 0 23 21" fill="none" xmlns="http://www.w3.org/2000/svg">
<g clip-path="url(#clip0_23466_3044)">
<path d="M1.19502 9.26274C1.80855 8.97714 2.50935 9.24725 2.78775 9.87661C3.06616 10.506 2.80285 11.2249 2.18933 11.5105C1.57581 11.7961 0.87501 11.526 0.596603 10.8966C0.318197 10.2672 0.581502 9.54833 1.19502 9.26274ZM7.76847 6.20277C8.382 5.91718 9.0828 6.18728 9.3612 6.81665C9.63961 7.44602 9.3763 8.16492 8.76278 8.45051C8.14926 8.73611 7.44846 8.466 7.17005 7.83664C6.89165 7.20727 7.15495 6.48837 7.76847 6.20277ZM11.0552 4.67279C11.6687 4.38719 12.3695 4.6573 12.6479 5.28667C12.9263 5.91603 12.663 6.63493 12.0495 6.92053C11.436 7.20613 10.7352 6.93602 10.4568 6.30665C10.1784 5.67729 10.4417 4.95839 11.0552 4.67279ZM14.3419 3.14281C14.9554 2.85721 15.6562 3.12732 15.9347 3.75668C16.2131 4.38605 15.9498 5.10495 15.3362 5.39055C14.7227 5.67614 14.0219 5.40604 13.7435 4.77667C13.4651 4.1473 13.7284 3.4284 14.3419 3.14281ZM4.48175 7.73275C5.09527 7.44716 5.79607 7.71726 6.07448 8.34663C6.35288 8.976 6.08958 9.6949 5.47606 9.9805C4.86254 10.2661 4.16173 9.99599 3.88333 9.36662C3.60492 8.73725 3.86823 8.01835 4.48175 7.73275Z" fill="#F1F1F1"/>
<path d="M18.5037 19.4291C18.5752 18.7421 19.1578 18.2612 19.8277 18.3362C20.4977 18.4112 20.9679 19.0099 20.8964 19.6969C20.8249 20.3839 20.2423 20.8648 19.5723 20.7898C18.9023 20.7148 18.4321 20.1161 18.5037 19.4291ZM19.27 12.0682C19.3415 11.3812 19.9241 10.9003 20.5941 10.9753C21.2641 11.0502 21.7343 11.6489 21.6627 12.336C21.5912 13.023 21.0086 13.5039 20.3386 13.4289C19.6687 13.3539 19.1985 12.7552 19.27 12.0682ZM19.6532 8.38774C19.7247 7.70073 20.3073 7.21983 20.9773 7.29481C21.6472 7.36978 22.1174 7.96849 22.0459 8.65551C21.9744 9.34253 21.3918 9.82342 20.7218 9.74845C20.0518 9.67347 19.5816 9.07476 19.6532 8.38774ZM20.0363 4.70729C20.1079 4.02027 20.6905 3.53938 21.3604 3.61435C22.0304 3.68933 22.5006 4.28804 22.4291 4.97506C22.3576 5.66207 21.775 6.14297 21.105 6.06799C20.435 5.99302 19.9648 5.39431 20.0363 4.70729ZM18.8868 15.7487C18.9583 15.0616 19.541 14.5807 20.2109 14.6557C20.8809 14.7307 21.3511 15.3294 21.2796 16.0164C21.208 16.7034 20.6254 17.1843 19.9555 17.1094C19.2855 17.0344 18.8153 16.4357 18.8868 15.7487Z" fill="#F1F1F1"/>
<path d="M16.9609 2.90602C16.9609 2.22802 17.4802 1.69531 18.1412 1.69531C18.8021 1.69531 19.3214 2.22802 19.3214 2.90602C19.3214 3.58402 18.8021 4.11673 18.1412 4.11673C17.4802 4.11673 16.9609 3.58402 16.9609 2.90602Z" fill="#F1F1F1"/>
<path d="M20.2812 1.61305C20.2812 0.935055 20.8005 0.402344 21.4615 0.402344C22.1224 0.402344 22.6417 0.935055 22.6417 1.61305C22.6417 2.29105 22.1224 2.82376 21.4615 2.82376C20.8005 2.82376 20.2812 2.29105 20.2812 1.61305Z" fill="#F1F1F1"/>
<path d="M14.7656 8.10133C14.7656 7.42334 15.2849 6.89062 15.9459 6.89062C16.6068 6.89062 17.1261 7.42334 17.1261 8.10133C17.1261 8.77933 16.6068 9.31204 15.9459 9.31204C15.2849 9.31204 14.7656 8.77933 14.7656 8.10133Z" fill="#F1F1F1"/>
<path d="M12.4062 10.5232C12.4062 9.84521 12.9255 9.3125 13.5865 9.3125C14.2474 9.3125 14.7667 9.84521 14.7667 10.5232C14.7667 11.2012 14.2474 11.7339 13.5865 11.7339C12.9255 11.7339 12.4062 11.2012 12.4062 10.5232Z" fill="#F1F1F1"/>
<path d="M10.3828 13.2302C10.3828 12.5522 10.9021 12.0195 11.563 12.0195C12.224 12.0195 12.7433 12.5522 12.7433 13.2302C12.7433 13.9082 12.224 14.4409 11.563 14.4409C10.9021 14.4409 10.3828 13.9082 10.3828 13.2302Z" fill="#F1F1F1"/>
<path d="M11.7656 16.531C11.7656 15.853 12.2849 15.3203 12.9459 15.3203C13.6068 15.3203 14.1261 15.853 14.1261 16.531C14.1261 17.209 13.6068 17.7417 12.9459 17.7417C12.2849 17.7417 11.7656 17.209 11.7656 16.531Z" fill="#F1F1F1"/>
<path d="M6.85938 13.4959C6.85938 12.8179 7.37867 12.2852 8.0396 12.2852C8.70053 12.2852 9.21983 12.8179 9.21983 13.4959C9.21983 14.1739 8.70053 14.7066 8.0396 14.7066C7.37867 14.7066 6.85938 14.1739 6.85938 13.4959Z" fill="#F1F1F1"/>
<path d="M3.45312 12.5154C3.45312 11.8374 3.97242 11.3047 4.63335 11.3047C5.29428 11.3047 5.81358 11.8374 5.81358 12.5154C5.81358 13.1934 5.29428 13.7261 4.63335 13.7261C3.97242 13.7261 3.45312 13.1934 3.45312 12.5154Z" fill="#F1F1F1"/>
<path d="M14.7656 18.4373C14.7656 17.7593 15.2849 17.2266 15.9459 17.2266C16.6068 17.2266 17.1261 17.7593 17.1261 18.4373C17.1261 19.1153 16.6068 19.648 15.9459 19.648C15.2849 19.648 14.7656 19.1153 14.7656 18.4373Z" fill="#F1F1F1"/>
</g>
<defs>
<clipPath id="clip0_23466_3044">
<rect width="23" height="21" fill="white"/>
</clipPath>
</defs>
</svg>
