<svg width="22" height="34" viewBox="0 0 22 34" fill="none" xmlns="http://www.w3.org/2000/svg">
<path d="M13.6776 29.7256C13.6776 31.4635 15.0533 32.829 16.8041 32.829C18.5549 32.829 19.9305 31.4635 19.9305 29.7256C19.9305 27.9876 18.5549 26.6221 16.8041 26.6221C15.0533 26.6221 13.6776 27.9876 13.6776 29.7256ZM7.42475 10.4842C7.42475 12.2221 8.80038 13.5876 10.5512 13.5876C12.302 13.5876 13.6776 12.2221 13.6776 10.4842C13.6776 8.74624 12.302 7.38073 10.5512 7.38073C8.80038 7.38073 7.42475 8.74624 7.42475 10.4842ZM1.17188 16.6911C1.17188 18.429 2.54751 19.7945 4.29831 19.7945C6.04912 19.7945 7.42475 18.429 7.42475 16.6911C7.42475 14.9531 6.04912 13.5876 4.29831 13.5876C2.54751 13.5876 1.17188 14.9531 1.17188 16.6911ZM7.42475 22.898C7.42475 24.6359 8.80038 26.0014 10.5512 26.0014C12.302 26.0014 13.6776 24.6359 13.6776 22.898C13.6776 21.16 12.302 19.7945 10.5512 19.7945C8.80038 19.7945 7.42475 21.16 7.42475 22.898ZM13.6776 4.27728C13.6776 6.01521 15.0533 7.38073 16.8041 7.38073C18.5549 7.38073 19.9305 6.01521 19.9305 4.27728C19.9305 2.53935 18.5549 1.17383 16.8041 1.17383C15.0533 1.17383 13.6776 2.53935 13.6776 4.27728Z" fill="#F1F1F1"/>
</svg>
