<svg width="16" height="24" viewBox="0 0 16 24" fill="none" xmlns="http://www.w3.org/2000/svg">
<path d="M5.40008 21.6165C5.40008 22.8804 4.39962 23.8735 3.12631 23.8735C1.853 23.8735 0.852539 22.8804 0.852539 21.6165C0.852539 20.3525 1.853 19.3594 3.12631 19.3594C4.39962 19.3594 5.40008 20.3525 5.40008 21.6165ZM9.94763 7.62272C9.94763 8.88667 8.94717 9.87978 7.67386 9.87978C6.40054 9.87978 5.40008 8.88667 5.40008 7.62272C5.40008 6.35877 6.40054 5.36567 7.67386 5.36567C8.94717 5.36567 9.94763 6.35877 9.94763 7.62272ZM14.4952 12.1368C14.4952 13.4008 13.4947 14.3939 12.2214 14.3939C10.9481 14.3939 9.94763 13.4008 9.94763 12.1368C9.94763 10.8729 10.9481 9.87978 12.2214 9.87978C13.4947 9.87978 14.4952 10.8729 14.4952 12.1368ZM9.94763 16.6509C9.94763 17.9149 8.94717 18.908 7.67386 18.908C6.40054 18.908 5.40008 17.9149 5.40008 16.6509C5.40008 15.387 6.40054 14.3939 7.67386 14.3939C8.94717 14.3939 9.94763 15.387 9.94763 16.6509ZM5.40008 3.10862C5.40008 4.37257 4.39962 5.36567 3.12631 5.36567C1.853 5.36567 0.852539 4.37257 0.852539 3.10862C0.852539 1.84467 1.853 0.851562 3.12631 0.851562C4.39962 0.851562 5.40008 1.84467 5.40008 3.10862Z" fill="#F1F1F1"/>
</svg>
