<svg width="16" height="24" viewBox="0 0 16 24" fill="none" xmlns="http://www.w3.org/2000/svg">
<path d="M9.94763 20.8899C9.94763 22.1538 10.9481 23.1469 12.2214 23.1469C13.4947 23.1469 14.4952 22.1538 14.4952 20.8899C14.4952 19.6259 13.4947 18.6328 12.2214 18.6328C10.9481 18.6328 9.94763 19.6259 9.94763 20.8899ZM5.40008 6.89616C5.40008 8.16011 6.40054 9.15321 7.67386 9.15321C8.94717 9.15321 9.94763 8.16011 9.94763 6.89616C9.94763 5.63221 8.94717 4.63911 7.67386 4.63911C6.40054 4.63911 5.40008 5.63221 5.40008 6.89616ZM0.852539 11.4103C0.852539 12.6742 1.853 13.6673 3.12631 13.6673C4.39962 13.6673 5.40008 12.6742 5.40008 11.4103C5.40008 10.1463 4.39962 9.15321 3.12631 9.15321C1.853 9.15321 0.852539 10.1463 0.852539 11.4103ZM5.40008 15.9244C5.40008 17.1883 6.40054 18.1814 7.67386 18.1814C8.94717 18.1814 9.94763 17.1883 9.94763 15.9244C9.94763 14.6604 8.94717 13.6673 7.67386 13.6673C6.40054 13.6673 5.40008 14.6604 5.40008 15.9244ZM9.94763 2.38205C9.94763 3.646 10.9481 4.63911 12.2214 4.63911C13.4947 4.63911 14.4952 3.646 14.4952 2.38205C14.4952 1.1181 13.4947 0.125 12.2214 0.125C10.9481 0.125 9.94763 1.1181 9.94763 2.38205Z" fill="#F1F1F1"/>
</svg>
