<svg width="80" height="80" viewBox="0 0 80 80" fill="none" xmlns="http://www.w3.org/2000/svg">
<g style="mix-blend-mode:difference">
<rect width="80" height="80" rx="40" fill="#F1F1F1"/>
<path d="M13.8388 46.3618C13.8388 47.2308 14.5266 47.9135 15.402 47.9135C16.2774 47.9135 16.9652 47.2308 16.9652 46.3618C16.9652 45.4928 16.2774 44.8101 15.402 44.8101C14.5266 44.8101 13.8388 45.4928 13.8388 46.3618ZM10.7124 36.7411C10.7124 37.6101 11.4002 38.2928 12.2756 38.2928C13.151 38.2928 13.8388 37.6101 13.8388 36.7411C13.8388 35.8721 13.151 35.1894 12.2756 35.1894C11.4002 35.1894 10.7124 35.8721 10.7124 36.7411ZM7.58594 39.8446C7.58594 40.7135 8.27375 41.3963 9.14916 41.3963C10.0246 41.3963 10.7124 40.7135 10.7124 39.8446C10.7124 38.9756 10.0246 38.2928 9.14916 38.2928C8.27375 38.2928 7.58594 38.9756 7.58594 39.8446ZM10.7124 42.948C10.7124 43.817 11.4002 44.4997 12.2756 44.4997C13.151 44.4997 13.8388 43.817 13.8388 42.948C13.8388 42.079 13.151 41.3963 12.2756 41.3963C11.4002 41.3963 10.7124 42.079 10.7124 42.948ZM13.8388 33.6377C13.8388 34.5066 14.5266 35.1894 15.402 35.1894C16.2774 35.1894 16.9652 34.5066 16.9652 33.6377C16.9652 32.7687 16.2774 32.0859 15.402 32.0859C14.5266 32.0859 13.8388 32.7687 13.8388 33.6377Z" fill="black"/>
<path d="M28.1875 39.8281C28.6562 39.9427 29.0078 40.0339 29.2422 40.1016C29.4818 40.1641 29.7812 40.2578 30.1406 40.3828C30.5052 40.5026 30.776 40.6172 30.9531 40.7266C31.1302 40.8359 31.3333 40.9818 31.5625 41.1641C31.7917 41.3464 31.9557 41.5443 32.0547 41.7578C32.1589 41.9661 32.2474 42.2188 32.3203 42.5156C32.3984 42.8125 32.4375 43.1432 32.4375 43.5078C32.4375 43.9349 32.3568 44.3385 32.1953 44.7188C32.0339 45.0938 31.7917 45.4349 31.4688 45.7422C31.1458 46.0443 30.7135 46.2839 30.1719 46.4609C29.6302 46.638 29.0104 46.7266 28.3125 46.7266C26.9167 46.7266 25.7604 46.3672 24.8438 45.6484C23.9271 44.9297 23.4297 43.9323 23.3516 42.6562H24.7891C24.8307 43.0625 24.9245 43.4297 25.0703 43.7578C25.2214 44.0859 25.4323 44.3802 25.7031 44.6406C25.9792 44.8958 26.3359 45.0938 26.7734 45.2344C27.2161 45.375 27.7292 45.4453 28.3125 45.4453C29.2396 45.4453 29.9193 45.2656 30.3516 44.9062C30.7839 44.5417 31 44.0755 31 43.5078C31 43.3099 30.987 43.1328 30.9609 42.9766C30.9401 42.8203 30.8932 42.6771 30.8203 42.5469C30.7526 42.4115 30.6797 42.2969 30.6016 42.2031C30.5234 42.1042 30.4062 42.0104 30.25 41.9219C30.099 41.8281 29.9505 41.75 29.8047 41.6875C29.6589 41.6198 29.4583 41.5495 29.2031 41.4766C28.9479 41.3984 28.7057 41.3307 28.4766 41.2734C28.2526 41.2161 27.9583 41.1458 27.5938 41.0625C27.3021 40.9948 27.0495 40.9323 26.8359 40.875C26.6276 40.8177 26.3828 40.7396 26.1016 40.6406C25.8203 40.5417 25.5807 40.4401 25.3828 40.3359C25.1901 40.2266 24.987 40.0885 24.7734 39.9219C24.5651 39.7552 24.3958 39.5781 24.2656 39.3906C24.1406 39.1979 24.0365 38.9688 23.9531 38.7031C23.8698 38.4375 23.8281 38.151 23.8281 37.8438C23.8281 36.9271 24.1693 36.1979 24.8516 35.6562C25.5391 35.1094 26.5052 34.8359 27.75 34.8359C28.9896 34.8359 29.9948 35.1484 30.7656 35.7734C31.5417 36.3984 31.9766 37.2917 32.0703 38.4531H30.6328C30.5234 37.6719 30.237 37.0885 29.7734 36.7031C29.3099 36.3125 28.6354 36.1172 27.75 36.1172C26.9583 36.1172 26.3464 36.2578 25.9141 36.5391C25.487 36.8203 25.2734 37.2031 25.2734 37.6875C25.2734 37.9688 25.3177 38.2135 25.4062 38.4219C25.5 38.6302 25.612 38.7995 25.7422 38.9297C25.8776 39.0547 26.0703 39.1719 26.3203 39.2812C26.5703 39.3906 26.8047 39.4766 27.0234 39.5391C27.2422 39.5964 27.5312 39.6693 27.8906 39.7578C28.0208 39.7891 28.1198 39.8125 28.1875 39.8281ZM33.9259 46.5V35.0625H38.4728C39.0145 35.0625 39.5041 35.125 39.9416 35.25C40.3791 35.375 40.7671 35.5677 41.1056 35.8281C41.4494 36.0833 41.715 36.4297 41.9025 36.8672C42.09 37.2995 42.1838 37.8073 42.1838 38.3906C42.1838 38.974 42.09 39.4844 41.9025 39.9219C41.715 40.3542 41.4494 40.7005 41.1056 40.9609C40.7671 41.2161 40.3791 41.4062 39.9416 41.5312C39.5041 41.6562 39.0145 41.7188 38.4728 41.7188H35.3713V46.5H33.9259ZM35.3713 36.3438V40.4375H38.6291C39.3426 40.4375 39.8739 40.2708 40.2228 39.9375C40.5718 39.599 40.7463 39.0833 40.7463 38.3906C40.7463 37.6979 40.5718 37.1849 40.2228 36.8516C39.8739 36.513 39.3426 36.3438 38.6291 36.3438H35.3713ZM43.4378 35.0625H44.8831V46.5H43.4378V35.0625ZM46.8872 46.5V35.0625H48.645L54.3638 44.4844H54.395V35.0625H55.8325V46.5H54.0747L48.3638 37.1094H48.3325V46.5H46.8872Z" fill="black"/>
<path d="M65.7124 46.3618C65.7124 47.2308 65.0246 47.9135 64.1492 47.9135C63.2738 47.9135 62.5859 47.2308 62.5859 46.3618C62.5859 45.4928 63.2738 44.8101 64.1492 44.8101C65.0246 44.8101 65.7124 45.4928 65.7124 46.3618ZM68.8388 36.7411C68.8388 37.6101 68.151 38.2928 67.2756 38.2928C66.4002 38.2928 65.7124 37.6101 65.7124 36.7411C65.7124 35.8721 66.4002 35.1894 67.2756 35.1894C68.151 35.1894 68.8388 35.8721 68.8388 36.7411ZM71.9652 39.8446C71.9652 40.7135 71.2774 41.3963 70.402 41.3963C69.5266 41.3963 68.8388 40.7135 68.8388 39.8446C68.8388 38.9756 69.5266 38.2928 70.402 38.2928C71.2774 38.2928 71.9652 38.9756 71.9652 39.8446ZM68.8388 42.948C68.8388 43.817 68.151 44.4997 67.2756 44.4997C66.4002 44.4997 65.7124 43.817 65.7124 42.948C65.7124 42.079 66.4002 41.3963 67.2756 41.3963C68.151 41.3963 68.8388 42.079 68.8388 42.948ZM65.7124 33.6377C65.7124 34.5066 65.0246 35.1894 64.1492 35.1894C63.2738 35.1894 62.5859 34.5066 62.5859 33.6377C62.5859 32.7687 63.2738 32.0859 64.1492 32.0859C65.0246 32.0859 65.7124 32.7687 65.7124 33.6377Z" fill="black"/>
</g>
</svg>
