<svg width="27" height="21" viewBox="0 0 27 21" fill="none" xmlns="http://www.w3.org/2000/svg">
<g clip-path="url(#clip0_23466_3045)">
<path d="M0.375 16.6312C0.375 16.0591 0.847487 15.6097 1.44883 15.6097C2.05018 15.6097 2.52267 16.0591 2.52267 16.6312C2.52267 17.2032 2.05018 17.6527 1.44883 17.6527C0.847487 17.6527 0.375 17.2032 0.375 16.6312ZM0.375 10.5021C0.375 9.93008 0.847487 9.48062 1.44883 9.48062C2.05018 9.48062 2.52267 9.93008 2.52267 10.5021C2.52267 11.0742 2.05018 11.5236 1.44883 11.5236C0.847487 11.5236 0.375 11.0742 0.375 10.5021ZM0.375 7.4376C0.375 6.86555 0.847487 6.41609 1.44883 6.41609C2.05018 6.41609 2.52267 6.86555 2.52267 7.4376C2.52267 8.00964 2.05018 8.45911 1.44883 8.45911C0.847487 8.45911 0.375 8.00964 0.375 7.4376ZM0.375 4.37307C0.375 3.80103 0.847487 3.35156 1.44883 3.35156C2.05018 3.35156 2.52267 3.80103 2.52267 4.37307C2.52267 4.94512 2.05018 5.39458 1.44883 5.39458C0.847487 5.39458 0.375 4.94512 0.375 4.37307ZM0.375 13.5667C0.375 12.9946 0.847487 12.5451 1.44883 12.5451C2.05018 12.5451 2.52267 12.9946 2.52267 13.5667C2.52267 14.1387 2.05018 14.5882 1.44883 14.5882C0.847487 14.5882 0.375 14.1387 0.375 13.5667Z" fill="#F1F1F1"/>
<path d="M24.4844 16.6312C24.4844 16.0591 24.9569 15.6097 25.5582 15.6097C26.1596 15.6097 26.632 16.0591 26.632 16.6312C26.632 17.2032 26.1596 17.6527 25.5582 17.6527C24.9569 17.6527 24.4844 17.2032 24.4844 16.6312ZM24.4844 10.5021C24.4844 9.93008 24.9569 9.48062 25.5582 9.48062C26.1596 9.48062 26.632 9.93008 26.632 10.5021C26.632 11.0742 26.1596 11.5236 25.5582 11.5236C24.9569 11.5236 24.4844 11.0742 24.4844 10.5021ZM24.4844 7.4376C24.4844 6.86555 24.9569 6.41609 25.5582 6.41609C26.1596 6.41609 26.632 6.86555 26.632 7.4376C26.632 8.00964 26.1596 8.45911 25.5582 8.45911C24.9569 8.45911 24.4844 8.00964 24.4844 7.4376ZM24.4844 4.37307C24.4844 3.80103 24.9569 3.35156 25.5582 3.35156C26.1596 3.35156 26.632 3.80103 26.632 4.37307C26.632 4.94512 26.1596 5.39458 25.5582 5.39458C24.9569 5.39458 24.4844 4.94512 24.4844 4.37307ZM24.4844 13.5667C24.4844 12.9946 24.9569 12.5451 25.5582 12.5451C26.1596 12.5451 26.632 12.9946 26.632 13.5667C26.632 14.1387 26.1596 14.5882 25.5582 14.5882C24.9569 14.5882 24.4844 14.1387 24.4844 13.5667Z" fill="#F1F1F1"/>
<path d="M19.9442 2.51562C19.3429 2.51562 18.8704 2.06616 18.8704 1.49412C18.8704 0.922071 19.3429 0.472607 19.9442 0.472607C20.5456 0.472607 21.0181 0.922071 21.0181 1.49412C21.0181 2.06616 20.5456 2.51562 19.9442 2.51562ZM13.5012 2.51562C12.8999 2.51562 12.4274 2.06616 12.4274 1.49412C12.4274 0.922071 12.8999 0.472607 13.5012 0.472607C14.1026 0.472607 14.5751 0.922071 14.5751 1.49412C14.5751 2.06616 14.1026 2.51562 13.5012 2.51562ZM10.2797 2.51562C9.67837 2.51562 9.20588 2.06616 9.20588 1.49412C9.20588 0.922071 9.67837 0.472607 10.2797 0.472607C10.8811 0.472607 11.3535 0.922071 11.3535 1.49412C11.3535 2.06616 10.8811 2.51562 10.2797 2.51562ZM7.05821 2.51562C6.45686 2.51562 5.98437 2.06616 5.98437 1.49412C5.98437 0.922071 6.45686 0.472607 7.05821 0.472607C7.65956 0.472607 8.13205 0.922071 8.13205 1.49412C8.13205 2.06616 7.65956 2.51562 7.05821 2.51562ZM16.7227 2.51562C16.1214 2.51562 15.6489 2.06616 15.6489 1.49412C15.6489 0.922071 16.1214 0.472607 16.7227 0.472607C17.3241 0.472607 17.7966 0.922071 17.7966 1.49412C17.7966 2.06616 17.3241 2.51562 16.7227 2.51562Z" fill="#F1F1F1"/>
<path d="M19.9442 20.5273C19.3429 20.5273 18.8704 20.0779 18.8704 19.5058C18.8704 18.9338 19.3429 18.4843 19.9442 18.4843C20.5456 18.4843 21.0181 18.9338 21.0181 19.5058C21.0181 20.0779 20.5456 20.5273 19.9442 20.5273ZM13.5012 20.5273C12.8999 20.5273 12.4274 20.0779 12.4274 19.5058C12.4274 18.9338 12.8999 18.4843 13.5012 18.4843C14.1026 18.4843 14.5751 18.9338 14.5751 19.5058C14.5751 20.0779 14.1026 20.5273 13.5012 20.5273ZM10.2797 20.5273C9.67837 20.5273 9.20588 20.0779 9.20588 19.5058C9.20588 18.9338 9.67837 18.4843 10.2797 18.4843C10.8811 18.4843 11.3535 18.9338 11.3535 19.5058C11.3535 20.0779 10.8811 20.5273 10.2797 20.5273ZM7.05821 20.5273C6.45686 20.5273 5.98437 20.0779 5.98437 19.5058C5.98437 18.9338 6.45686 18.4843 7.05821 18.4843C7.65956 18.4843 8.13205 18.9338 8.13205 19.5058C8.13205 20.0779 7.65956 20.5273 7.05821 20.5273ZM16.7227 20.5273C16.1214 20.5273 15.6489 20.0779 15.6489 19.5058C15.6489 18.9338 16.1214 18.4843 16.7227 18.4843C17.3241 18.4843 17.7966 18.9338 17.7966 19.5058C17.7966 20.0779 17.3241 20.5273 16.7227 20.5273Z" fill="#F1F1F1"/>
<path d="M2.65625 18.8154C2.65625 18.2494 3.12377 17.8047 3.71878 17.8047C4.3138 17.8047 4.78132 18.2494 4.78132 18.8154C4.78132 19.3815 4.3138 19.8262 3.71878 19.8262C3.12377 19.8262 2.65625 19.3815 2.65625 18.8154Z" fill="#F1F1F1"/>
<path d="M2.65625 2.17482C2.65625 1.6088 3.12377 1.16406 3.71878 1.16406C4.3138 1.16406 4.78132 1.6088 4.78132 2.17482C4.78132 2.74085 4.3138 3.18558 3.71878 3.18558C3.12377 3.18558 2.65625 2.74085 2.65625 2.17482Z" fill="#F1F1F1"/>
<path d="M22.0547 2.17482C22.0547 1.6088 22.5222 1.16406 23.1172 1.16406C23.7122 1.16406 24.1798 1.6088 24.1798 2.17482C24.1798 2.74085 23.7122 3.18558 23.1172 3.18558C22.5222 3.18558 22.0547 2.74085 22.0547 2.17482Z" fill="#F1F1F1"/>
<path d="M22.3594 18.8154C22.3594 18.2494 22.8269 17.8047 23.4219 17.8047C24.0169 17.8047 24.4844 18.2494 24.4844 18.8154C24.4844 19.3815 24.0169 19.8262 23.4219 19.8262C22.8269 19.8262 22.3594 19.3815 22.3594 18.8154Z" fill="#F1F1F1"/>
<path d="M10.5 7.00685C10.5 6.44083 10.9675 5.99609 11.5625 5.99609C12.1576 5.99609 12.6251 6.44083 12.6251 7.00685C12.6251 7.57288 12.1576 8.01761 11.5625 8.01761C10.9675 8.01761 10.5 7.57288 10.5 7.00685Z" fill="#F1F1F1"/>
<path d="M10.5 10.7139C10.5 10.1479 10.9675 9.70312 11.5625 9.70312C12.1576 9.70312 12.6251 10.1479 12.6251 10.7139C12.6251 11.2799 12.1576 11.7246 11.5625 11.7246C10.9675 11.7246 10.5 11.2799 10.5 10.7139Z" fill="#F1F1F1"/>
<path d="M10.5 14.4209C10.5 13.8549 10.9675 13.4102 11.5625 13.4102C12.1576 13.4102 12.6251 13.8549 12.6251 14.4209C12.6251 14.9869 12.1576 15.4317 11.5625 15.4317C10.9675 15.4317 10.5 14.9869 10.5 14.4209Z" fill="#F1F1F1"/>
<path d="M13.2891 12.3975C13.2891 11.8315 13.7566 11.3867 14.3516 11.3867C14.9466 11.3867 15.4141 11.8315 15.4141 12.3975C15.4141 12.9635 14.9466 13.4082 14.3516 13.4082C13.7566 13.4082 13.2891 12.9635 13.2891 12.3975Z" fill="#F1F1F1"/>
<path d="M13.2891 8.69045C13.2891 8.12442 13.7566 7.67969 14.3516 7.67969C14.9466 7.67969 15.4141 8.12442 15.4141 8.69045C15.4141 9.25647 14.9466 9.70121 14.3516 9.70121C13.7566 9.70121 13.2891 9.25647 13.2891 8.69045Z" fill="#F1F1F1"/>
<path d="M16.0781 10.499C16.0781 9.93302 16.5456 9.48828 17.1407 9.48828C17.7357 9.48828 18.2032 9.93302 18.2032 10.499C18.2032 11.0651 17.7357 11.5098 17.1407 11.5098C16.5456 11.5098 16.0781 11.0651 16.0781 10.499Z" fill="#F1F1F1"/>
</g>
<defs>
<clipPath id="clip0_23466_3045">
<rect width="27" height="21" fill="white"/>
</clipPath>
</defs>
</svg>
