<svg width="24" height="19" viewBox="0 0 24 19" fill="none" xmlns="http://www.w3.org/2000/svg">
<path d="M3.47094 14.3147C3.47094 13.6408 4.01454 13.1114 4.7064 13.1114C5.39827 13.1114 5.94187 13.6408 5.94187 14.3147C5.94187 14.9885 5.39827 15.518 4.7064 15.518C4.01454 15.518 3.47094 14.9885 3.47094 14.3147ZM5.94187 16.7213C5.94187 16.0475 6.48548 15.518 7.17734 15.518C7.8692 15.518 8.41281 16.0475 8.41281 16.7213C8.41281 17.3952 7.8692 17.9247 7.17734 17.9247C6.48548 17.9247 5.94187 17.3952 5.94187 16.7213ZM8.41281 14.3147C8.41281 13.6408 8.95641 13.1114 9.64828 13.1114C10.3401 13.1114 10.8837 13.6408 10.8837 14.3147C10.8837 14.9885 10.3401 15.518 9.64828 15.518C8.95641 15.518 8.41281 14.9885 8.41281 14.3147ZM1 2.28145C1 1.60759 1.54361 1.07812 2.23547 1.07812C2.92733 1.07812 3.47094 1.60759 3.47094 2.28145C3.47094 2.95531 2.92733 3.48477 2.23547 3.48477C2.92733 3.48477 3.47094 4.01423 3.47094 4.6881C3.47094 5.36196 2.92733 5.89142 2.23547 5.89142C2.92733 5.89142 3.47094 6.42088 3.47094 7.09474C3.47094 7.7686 2.92733 8.29806 2.23547 8.29806C2.92733 8.29806 3.47094 8.82753 3.47094 9.50139C3.47094 10.1752 2.92733 10.7047 2.23547 10.7047C2.92733 10.7047 3.47094 11.2342 3.47094 11.908C3.47094 12.5819 2.92733 13.1114 2.23547 13.1114C1.54361 13.1114 1 12.5819 1 11.908C1 11.2342 1.54361 10.7047 2.23547 10.7047C1.54361 10.7047 1 10.1752 1 9.50139C1 8.82753 1.54361 8.29806 2.23547 8.29806C1.54361 8.29806 1 7.7686 1 7.09474C1 6.42088 1.54361 5.89142 2.23547 5.89142C1.54361 5.89142 1 5.36196 1 4.6881C1 4.01423 1.54361 3.48477 2.23547 3.48477C1.54361 3.48477 1 2.95531 1 2.28145ZM10.8837 2.28145C10.8837 1.60759 11.4274 1.07812 12.1192 1.07812C12.8111 1.07812 13.3547 1.60759 13.3547 2.28145C13.3547 2.95531 12.8111 3.48477 12.1192 3.48477C12.8111 3.48477 13.3547 4.01423 13.3547 4.6881C13.3547 5.36196 12.8111 5.89142 12.1192 5.89142C12.8111 5.89142 13.3547 6.42088 13.3547 7.09474C13.3547 7.7686 12.8111 8.29806 12.1192 8.29806C12.8111 8.29806 13.3547 8.82753 13.3547 9.50139C13.3547 10.1752 12.8111 10.7047 12.1192 10.7047C12.8111 10.7047 13.3547 11.2342 13.3547 11.908C13.3547 12.5819 12.8111 13.1114 12.1192 13.1114C11.4274 13.1114 10.8837 12.5819 10.8837 11.908C10.8837 11.2342 11.4274 10.7047 12.1192 10.7047C11.4274 10.7047 10.8837 10.1752 10.8837 9.50139C10.8837 8.82753 11.4274 8.29806 12.1192 8.29806C11.4274 8.29806 10.8837 7.7686 10.8837 7.09474C10.8837 6.42088 11.4274 5.89142 12.1192 5.89142C11.4274 5.89142 10.8837 5.36196 10.8837 4.6881C10.8837 4.01423 11.4274 3.48477 12.1192 3.48477C11.4274 3.48477 10.8837 2.95531 10.8837 2.28145Z" fill="#F1F1F1"/>
<path d="M18.2964 14.3147C18.2964 13.6408 18.84 13.1114 19.5319 13.1114C20.2237 13.1114 20.7673 13.6408 20.7673 14.3147C20.7673 14.9885 20.2237 15.518 19.5319 15.518C18.84 15.518 18.2964 14.9885 18.2964 14.3147ZM20.7673 16.7213C20.7673 16.0475 21.311 15.518 22.0028 15.518C22.6947 15.518 23.2383 16.0475 23.2383 16.7213C23.2383 17.3952 22.6947 17.9247 22.0028 17.9247C21.311 17.9247 20.7673 17.3952 20.7673 16.7213ZM10.8836 16.7213C10.8836 16.0475 11.4272 15.518 12.1191 15.518C11.4272 15.518 10.8837 14.9885 10.8837 14.3147C10.8837 13.6408 11.4274 13.1114 12.1192 13.1114C11.4274 13.1114 10.8837 12.5819 10.8837 11.908C10.8837 11.2342 11.4274 10.7047 12.1192 10.7047C11.4274 10.7047 10.8837 10.1752 10.8837 9.50139C10.8837 8.82753 11.4274 8.29806 12.1192 8.29806C11.4274 8.29806 10.8837 7.7686 10.8837 7.09474C10.8837 6.42088 11.4274 5.89142 12.1192 5.89142C11.4274 5.89142 10.8837 5.36196 10.8837 4.6881C10.8837 4.01423 11.4274 3.48477 12.1192 3.48477C11.4274 3.48477 10.8837 2.95531 10.8837 2.28145C10.8837 1.60759 11.4274 1.07812 12.1192 1.07812C12.8111 1.07812 13.3547 1.60759 13.3547 2.28145C13.3547 2.95531 12.8111 3.48477 12.1192 3.48477C12.8111 3.48477 13.3547 4.01423 13.3547 4.6881C13.3547 5.36196 12.8111 5.89142 12.1192 5.89142C12.8111 5.89142 13.3547 6.42088 13.3547 7.09474C13.3547 7.7686 12.8111 8.29806 12.1192 8.29806C12.8111 8.29806 13.3547 8.82753 13.3547 9.50139C13.3547 8.82753 13.8981 8.29806 14.59 8.29806C15.2819 8.29806 15.8255 8.82753 15.8255 9.50139C15.8255 10.1752 15.2819 10.7047 14.59 10.7047C13.8981 10.7047 13.3547 10.1752 13.3547 9.50139C13.3547 10.1752 12.8111 10.7047 12.1192 10.7047C12.8111 10.7047 13.3547 11.2342 13.3547 11.908C13.3547 12.5819 12.8111 13.1114 12.1192 13.1114C12.8111 13.1114 13.3545 13.6408 13.3545 14.3147C13.3545 14.9885 12.8109 15.518 12.1191 15.518C12.8109 15.518 13.3545 16.0475 13.3545 16.7213C13.3545 17.3952 12.8109 17.9247 12.1191 17.9247C11.4272 17.9247 10.8836 17.3952 10.8836 16.7213ZM15.8255 11.908C15.8255 11.2342 16.3691 10.7047 17.0609 10.7047C17.7528 10.7047 18.2964 11.2342 18.2964 11.908C18.2964 12.5819 17.7528 13.1114 17.0609 13.1114C16.3691 13.1114 15.8255 12.5819 15.8255 11.908ZM15.8255 7.09474C15.8255 6.42088 16.3691 5.89142 17.0609 5.89142C17.7528 5.89142 18.2964 6.42088 18.2964 7.09474C18.2964 7.7686 17.7528 8.29806 17.0609 8.29806C16.3691 8.29806 15.8255 7.7686 15.8255 7.09474ZM18.2964 4.6881C18.2964 4.01423 18.84 3.48477 19.5319 3.48477C20.2237 3.48477 20.7673 4.01423 20.7673 4.6881C20.7673 5.36196 20.2237 5.89142 19.5319 5.89142C18.84 5.89142 18.2964 5.36196 18.2964 4.6881ZM20.7673 2.28145C20.7673 1.60759 21.311 1.07812 22.0028 1.07812C22.6947 1.07812 23.2383 1.60759 23.2383 2.28145C23.2383 2.95531 22.6947 3.48477 22.0028 3.48477C21.311 3.48477 20.7673 2.95531 20.7673 2.28145Z" fill="#F1F1F1"/>
</svg>
