<svg width="22" height="34" viewBox="0 0 22 34" fill="none" xmlns="http://www.w3.org/2000/svg">
<path d="M7.42475 29.7236C7.42475 31.4615 6.04912 32.827 4.29831 32.827C2.54751 32.827 1.17188 31.4615 1.17188 29.7236C1.17188 27.9857 2.54751 26.6202 4.29831 26.6202C6.04912 26.6202 7.42475 27.9857 7.42475 29.7236ZM13.6776 10.4822C13.6776 12.2201 12.302 13.5857 10.5512 13.5857C8.80038 13.5857 7.42475 12.2201 7.42475 10.4822C7.42475 8.74429 8.80038 7.37877 10.5512 7.37877C12.302 7.37877 13.6776 8.74429 13.6776 10.4822ZM19.9305 16.6891C19.9305 18.427 18.5549 19.7926 16.8041 19.7926C15.0533 19.7926 13.6776 18.427 13.6776 16.6891C13.6776 14.9512 15.0533 13.5857 16.8041 13.5857C18.5549 13.5857 19.9305 14.9512 19.9305 16.6891ZM13.6776 22.896C13.6776 24.6339 12.302 25.9995 10.5512 25.9995C8.80038 25.9995 7.42475 24.6339 7.42475 22.896C7.42475 21.1581 8.80038 19.7926 10.5512 19.7926C12.302 19.7926 13.6776 21.1581 13.6776 22.896ZM7.42475 4.27532C7.42475 6.01325 6.04912 7.37877 4.29831 7.37877C2.54751 7.37877 1.17188 6.01325 1.17188 4.27532C1.17188 2.53739 2.54751 1.17188 4.29831 1.17188C6.04912 1.17188 7.42475 2.53739 7.42475 4.27532Z" fill="#F1F1F1"/>
</svg>
