<svg width="95" height="46" viewBox="0 0 95 46" fill="none" xmlns="http://www.w3.org/2000/svg">
<g style="mix-blend-mode:difference">
<rect y="0.5" width="95" height="45" rx="22.5" fill="#F1F1F1"/>
<path d="M16.8388 16.6382C16.8388 15.7692 17.5266 15.0865 18.402 15.0865C19.2774 15.0865 19.9652 15.7692 19.9652 16.6382C19.9652 17.5072 19.2774 18.1899 18.402 18.1899C17.5266 18.1899 16.8388 17.5072 16.8388 16.6382ZM13.7124 26.2589C13.7124 25.3899 14.4002 24.7072 15.2756 24.7072C16.151 24.7072 16.8388 25.3899 16.8388 26.2589C16.8388 27.1279 16.151 27.8106 15.2756 27.8106C14.4002 27.8106 13.7124 27.1279 13.7124 26.2589ZM10.5859 23.1554C10.5859 22.2865 11.2738 21.6037 12.1492 21.6037C13.0246 21.6037 13.7124 22.2865 13.7124 23.1554C13.7124 24.0244 13.0246 24.7072 12.1492 24.7072C11.2738 24.7072 10.5859 24.0244 10.5859 23.1554ZM13.7124 20.052C13.7124 19.183 14.4002 18.5003 15.2756 18.5003C16.151 18.5003 16.8388 19.183 16.8388 20.052C16.8388 20.921 16.151 21.6037 15.2756 21.6037C14.4002 21.6037 13.7124 20.921 13.7124 20.052ZM16.8388 29.3623C16.8388 28.4934 17.5266 27.8106 18.402 27.8106C19.2774 27.8106 19.9652 28.4934 19.9652 29.3623C19.9652 30.2313 19.2774 30.9141 18.402 30.9141C17.5266 30.9141 16.8388 30.2313 16.8388 29.3623Z" fill="black"/>
<path d="M27.0703 29.5V18.0625H31.2188C32.8073 18.0625 34.0521 18.5625 34.9531 19.5625C35.8542 20.5573 36.3047 21.9661 36.3047 23.7891C36.3047 25.612 35.8542 27.0208 34.9531 28.0156C34.0521 29.0052 32.8073 29.5 31.2188 29.5H27.0703ZM28.5156 19.3438V28.2188H31.2188C31.7812 28.2188 32.2786 28.1354 32.7109 27.9688C33.1484 27.8021 33.5 27.5833 33.7656 27.3125C34.0312 27.0365 34.2474 26.7031 34.4141 26.3125C34.5859 25.9219 34.7031 25.5234 34.7656 25.1172C34.8333 24.7109 34.8672 24.2682 34.8672 23.7891C34.8672 23.3099 34.8333 22.8672 34.7656 22.4609C34.7031 22.0547 34.5859 21.6562 34.4141 21.2656C34.2474 20.8698 34.0312 20.5339 33.7656 20.2578C33.5 19.9818 33.1484 19.7604 32.7109 19.5938C32.2786 19.4271 31.7812 19.3438 31.2188 19.3438H28.5156ZM37.8478 29.5V18.0625H42.4884C43.6291 18.0625 44.5431 18.3516 45.2306 18.9297C45.9181 19.5078 46.2619 20.2995 46.2619 21.3047C46.2619 22.1068 46.0822 22.7474 45.7228 23.2266C45.3686 23.7005 44.866 24.0208 44.215 24.1875V24.2188C44.616 24.2969 44.9494 24.4792 45.215 24.7656C45.4858 25.0469 45.6759 25.3724 45.7853 25.7422C45.8999 26.1068 45.9884 26.5 46.0509 26.9219C46.1134 27.3438 46.1473 27.7318 46.1525 28.0859C46.1629 28.4401 46.189 28.7422 46.2306 28.9922C46.2723 29.237 46.3374 29.375 46.4259 29.4062V29.5H44.8713C44.7983 29.4323 44.7489 29.2656 44.7228 29C44.702 28.7292 44.6942 28.4271 44.6994 28.0938C44.7046 27.7552 44.6759 27.3958 44.6134 27.0156C44.5561 26.6302 44.465 26.2812 44.34 25.9688C44.2202 25.6562 44.0093 25.3958 43.7072 25.1875C43.4051 24.9792 43.0249 24.875 42.5666 24.875H39.2931V29.5H37.8478ZM39.2931 19.3438V23.5938H42.1525C42.439 23.5938 42.6864 23.5859 42.8947 23.5703C43.103 23.5495 43.3374 23.4974 43.5978 23.4141C43.8582 23.3307 44.0692 23.2188 44.2306 23.0781C44.3973 22.9323 44.5379 22.724 44.6525 22.4531C44.7671 22.1771 44.8244 21.849 44.8244 21.4688C44.8244 21.0885 44.7671 20.763 44.6525 20.4922C44.5379 20.2161 44.3973 20.0078 44.2306 19.8672C44.0692 19.7214 43.8582 19.6068 43.5978 19.5234C43.3374 19.4401 43.103 19.3906 42.8947 19.375C42.6864 19.3542 42.439 19.3438 42.1525 19.3438H39.2931ZM54.4378 26.6328H49.3988L48.3909 29.5H46.8988L51.1253 18.0625H52.7269L56.9378 29.5H55.4456L54.4378 26.6328ZM49.8753 25.3594H53.9769L51.9456 19.3906H51.9144L49.8753 25.3594ZM65.7075 21.5156C65.546 20.724 65.1658 20.1276 64.5669 19.7266C63.9679 19.3203 63.2231 19.1172 62.3325 19.1172C61.8065 19.1172 61.3247 19.2109 60.8872 19.3984C60.4497 19.5859 60.0825 19.8333 59.7856 20.1406C59.494 20.4479 59.244 20.8047 59.0356 21.2109C58.8325 21.6172 58.6841 22.0365 58.5903 22.4688C58.5018 22.8958 58.4575 23.3307 58.4575 23.7734C58.4575 24.2318 58.4914 24.6719 58.5591 25.0938C58.632 25.5104 58.757 25.9271 58.9341 26.3438C59.1164 26.7604 59.3429 27.1224 59.6138 27.4297C59.8846 27.7318 60.2388 27.9766 60.6763 28.1641C61.1138 28.3516 61.6111 28.4453 62.1684 28.4453C62.8507 28.4453 63.4731 28.2943 64.0356 27.9922C64.6033 27.6901 65.0565 27.263 65.395 26.7109C65.7335 26.1536 65.9028 25.526 65.9028 24.8281H62.1684V23.5469H67.3403V29.5H66.3794L65.9028 27.8828H65.8638C65.4158 28.5078 64.9002 28.9714 64.3169 29.2734C63.7388 29.5755 63.0226 29.7266 62.1684 29.7266C61.0851 29.7266 60.1502 29.4688 59.3638 28.9531C58.5825 28.4375 57.9966 27.737 57.6059 26.8516C57.2153 25.9609 57.02 24.9349 57.02 23.7734C57.02 22.638 57.2388 21.6198 57.6763 20.7188C58.119 19.8177 58.744 19.112 59.5513 18.6016C60.3638 18.0911 61.2908 17.8359 62.3325 17.8359C63.7283 17.8359 64.8273 18.1641 65.6294 18.8203C66.4315 19.4766 66.9367 20.375 67.145 21.5156H65.7075Z" fill="black"/>
<path d="M77.7124 16.6382C77.7124 15.7692 77.0246 15.0865 76.1492 15.0865C75.2738 15.0865 74.5859 15.7692 74.5859 16.6382C74.5859 17.5072 75.2738 18.1899 76.1492 18.1899C77.0246 18.1899 77.7124 17.5072 77.7124 16.6382ZM80.8388 26.2589C80.8388 25.3899 80.151 24.7072 79.2756 24.7072C78.4002 24.7072 77.7124 25.3899 77.7124 26.2589C77.7124 27.1279 78.4002 27.8106 79.2756 27.8106C80.151 27.8106 80.8388 27.1279 80.8388 26.2589ZM83.9652 23.1554C83.9652 22.2865 83.2774 21.6037 82.402 21.6037C81.5266 21.6037 80.8388 22.2865 80.8388 23.1554C80.8388 24.0244 81.5266 24.7072 82.402 24.7072C83.2774 24.7072 83.9652 24.0244 83.9652 23.1554ZM80.8388 20.052C80.8388 19.183 80.151 18.5003 79.2756 18.5003C78.4002 18.5003 77.7124 19.183 77.7124 20.052C77.7124 20.921 78.4002 21.6037 79.2756 21.6037C80.151 21.6037 80.8388 20.921 80.8388 20.052ZM77.7124 29.3623C77.7124 28.4934 77.0246 27.8106 76.1492 27.8106C75.2738 27.8106 74.5859 28.4934 74.5859 29.3623C74.5859 30.2313 75.2738 30.9141 76.1492 30.9141C77.0246 30.9141 77.7124 30.2313 77.7124 29.3623Z" fill="black"/>
</g>
</svg>
